<svg width="332" height="290" viewBox="0 0 332 290" fill="none" xmlns="http://www.w3.org/2000/svg">
<g filter="url(#filter0_d_1_1239)">
<rect x="43.4185" y="18.4935" width="48.1544" height="48.1544" rx="24.0772" transform="rotate(-6.0288 43.4185 18.4935)" fill="white"/>
</g>
<path d="M59.1829 34.0342C59.1596 33.8137 59.2249 33.593 59.3643 33.4206C59.5038 33.2482 59.706 33.1383 59.9265 33.115C62.8785 32.8032 65.6447 31.4541 68.2393 29.0426C68.3718 28.9194 68.5407 28.8426 68.7206 28.8236C68.9005 28.8046 69.0817 28.8445 69.237 28.9372C72.2781 30.7535 75.2651 31.4951 78.2171 31.1833C78.4376 31.16 78.6583 31.2253 78.8307 31.3647C79.0031 31.5042 79.113 31.7064 79.1363 31.9269L79.7509 37.7466C79.7721 37.9473 79.7886 38.1461 79.8007 38.3455C79.2021 37.856 78.4715 37.5553 77.7016 37.4819C76.9318 37.4084 76.1575 37.5653 75.4771 37.9328C74.7966 38.3003 74.2407 38.8617 73.88 39.5457C73.5193 40.2297 73.3699 41.0056 73.451 41.7746L73.4569 41.83C72.8444 42.0239 72.3177 42.4235 71.966 42.961C71.6143 43.4986 71.4591 44.1412 71.5267 44.7801L72.112 50.3227C72.1179 50.3781 72.1246 50.4312 72.1336 50.484C71.8819 50.6272 71.6254 50.7664 71.3597 50.9043C71.1722 51.0018 70.9548 51.0248 70.7511 50.9685C64.0923 49.1252 60.3829 45.3965 59.7976 39.8539L59.1829 34.0342ZM74.6766 42.7661L74.5595 41.6575C74.4819 40.9225 74.6994 40.1868 75.1643 39.6122C75.6291 39.0376 76.3032 38.6712 77.0382 38.5936C77.7731 38.5159 78.5089 38.7335 79.0835 39.1983C79.6581 39.6631 80.0245 40.3372 80.1021 41.0722L80.2192 42.1807L80.7735 42.1222C81.2145 42.0756 81.6559 42.2061 82.0007 42.485C82.3454 42.7639 82.5653 43.1683 82.6119 43.6093L83.1972 49.1519C83.2438 49.5929 83.1133 50.0344 82.8344 50.3791C82.5555 50.7239 82.1511 50.9437 81.7101 50.9903L75.0589 51.6928C74.6179 51.7393 74.1765 51.6088 73.8317 51.3299C73.487 51.051 73.2671 50.6466 73.2206 50.2056L72.6352 44.663C72.5886 44.222 72.7191 43.7806 72.998 43.4358C73.2769 43.091 73.6814 42.8712 74.1224 42.8246L74.6766 42.7661ZM76.2223 41.4819L76.3394 42.5905L78.5564 42.3563L78.4394 41.2478C78.4083 40.9538 78.2617 40.6842 78.0319 40.4982C77.8021 40.3123 77.5078 40.2253 77.2138 40.2563C76.9198 40.2874 76.6501 40.434 76.4642 40.6638C76.2783 40.8936 76.1913 41.1879 76.2223 41.4819ZM79.0247 46.7904C78.9937 46.4964 78.8471 46.2268 78.6173 46.0408C78.3874 45.8549 78.0931 45.7679 77.7991 45.7989C77.5051 45.83 77.2355 45.9766 77.0496 46.2064C76.8636 46.4362 76.7766 46.7305 76.8077 47.0245C76.8387 47.3185 76.9853 47.5882 77.2151 47.7741C77.445 47.96 77.7393 48.047 78.0333 48.016C78.3273 47.9849 78.5969 47.8384 78.7828 47.6085C78.9688 47.3787 79.0558 47.0844 79.0247 46.7904Z" fill="#4ADE80"/>
<g filter="url(#filter1_d_1_1239)">
<rect x="30" y="204" width="142" height="51" rx="8" fill="white"/>
</g>
<path d="M41.5859 218.954H44.2764C45.3376 218.954 46.1628 219.258 46.752 219.867C47.3411 220.476 47.6357 221.337 47.6357 222.45C47.6357 223.567 47.3395 224.438 46.7471 225.062C46.1579 225.688 45.3343 226 44.2764 226H41.5859V218.954ZM43.0605 220.17V224.779H44.1006C44.7614 224.779 45.2643 224.582 45.6094 224.188C45.9577 223.791 46.1318 223.214 46.1318 222.455C46.1318 221.719 45.9561 221.155 45.6045 220.761C45.2529 220.367 44.7516 220.17 44.1006 220.17H43.0605ZM48.7902 226V220.766H50.216V226H48.7902ZM50.0451 219.975C49.8986 220.118 49.718 220.189 49.5031 220.189C49.2883 220.189 49.1076 220.118 48.9611 219.975C48.8146 219.831 48.7414 219.657 48.7414 219.452C48.7414 219.244 48.8146 219.07 48.9611 218.93C49.1076 218.786 49.2883 218.715 49.5031 218.715C49.718 218.715 49.8986 218.786 50.0451 218.93C50.1916 219.07 50.2648 219.244 50.2648 219.452C50.2648 219.657 50.1916 219.831 50.0451 219.975ZM51.4682 226V220.766H52.8451V221.708H52.8744C52.9656 221.376 53.1186 221.122 53.3334 220.946C53.5482 220.771 53.8103 220.683 54.1195 220.683C54.2693 220.683 54.4044 220.701 54.5248 220.736V221.991C54.3913 221.936 54.2188 221.908 54.0072 221.908C53.6557 221.908 53.3822 222.011 53.1869 222.216C52.9916 222.421 52.8939 222.707 52.8939 223.075V226H51.4682ZM57.5836 221.708C57.2743 221.708 57.0156 221.814 56.8072 222.025C56.6021 222.237 56.4866 222.507 56.4605 222.836H58.6822C58.666 222.501 58.5569 222.229 58.3551 222.021C58.1565 221.812 57.8993 221.708 57.5836 221.708ZM58.7018 224.398H60.0104C59.9322 224.913 59.6751 225.328 59.2389 225.644C58.8059 225.956 58.2672 226.112 57.6227 226.112C56.8186 226.112 56.1871 225.871 55.7281 225.39C55.2724 224.908 55.0445 224.247 55.0445 223.407C55.0445 222.571 55.2724 221.903 55.7281 221.405C56.1839 220.904 56.7975 220.653 57.5689 220.653C58.3274 220.653 58.9312 220.891 59.3805 221.366C59.8297 221.841 60.0543 222.478 60.0543 223.275V223.71H56.4459V223.798C56.4459 224.172 56.5549 224.477 56.773 224.711C56.9944 224.942 57.2857 225.058 57.6471 225.058C57.9075 225.058 58.1321 224.999 58.3209 224.882C58.5097 224.761 58.6367 224.6 58.7018 224.398ZM65.8475 222.714H64.5242C64.4819 222.431 64.3696 222.203 64.1873 222.03C64.0083 221.858 63.7755 221.771 63.4891 221.771C63.1342 221.771 62.8543 221.915 62.6492 222.201C62.4474 222.484 62.3465 222.877 62.3465 223.378C62.3465 223.889 62.4474 224.286 62.6492 224.569C62.8543 224.853 63.1359 224.994 63.4939 224.994C63.7771 224.994 64.0083 224.914 64.1873 224.755C64.3663 224.592 64.4786 224.368 64.5242 224.081H65.8523C65.8165 224.7 65.5838 225.193 65.1541 225.561C64.7244 225.928 64.1661 226.112 63.4793 226.112C62.685 226.112 62.0568 225.87 61.5945 225.385C61.1323 224.896 60.9012 224.228 60.9012 223.378C60.9012 222.541 61.1323 221.879 61.5945 221.391C62.06 220.899 62.685 220.653 63.4695 220.653C64.1661 220.653 64.7277 220.845 65.1541 221.229C65.5838 221.614 65.8149 222.108 65.8475 222.714ZM67.2217 219.56H68.6475V220.766H69.6143V221.84H68.6475V224.345C68.6475 224.739 68.8525 224.936 69.2627 224.936C69.3962 224.936 69.5117 224.927 69.6094 224.911V225.961C69.4434 226 69.2171 226.02 68.9307 226.02C68.3154 226.02 67.876 225.909 67.6123 225.688C67.3519 225.466 67.2217 225.1 67.2217 224.589V221.84H66.4844V220.766H67.2217V219.56ZM73.1 218.954H75.7904C76.8516 218.954 77.6768 219.258 78.266 219.867C78.8552 220.476 79.1498 221.337 79.1498 222.45C79.1498 223.567 78.8536 224.438 78.2611 225.062C77.6719 225.688 76.8484 226 75.7904 226H73.1V218.954ZM74.5746 220.17V224.779H75.6146C76.2755 224.779 76.7784 224.582 77.1234 224.188C77.4717 223.791 77.6459 223.214 77.6459 222.455C77.6459 221.719 77.4701 221.155 77.1186 220.761C76.767 220.367 76.2657 220.17 75.6146 220.17H74.5746ZM82.6285 221.708C82.3193 221.708 82.0605 221.814 81.8521 222.025C81.6471 222.237 81.5315 222.507 81.5055 222.836H83.7271C83.7109 222.501 83.6018 222.229 83.4 222.021C83.2014 221.812 82.9443 221.708 82.6285 221.708ZM83.7467 224.398H85.0553C84.9771 224.913 84.72 225.328 84.2838 225.644C83.8508 225.956 83.3121 226.112 82.6676 226.112C81.8635 226.112 81.232 225.871 80.773 225.39C80.3173 224.908 80.0895 224.247 80.0895 223.407C80.0895 222.571 80.3173 221.903 80.773 221.405C81.2288 220.904 81.8424 220.653 82.6139 220.653C83.3723 220.653 83.9762 220.891 84.4254 221.366C84.8746 221.841 85.0992 222.478 85.0992 223.275V223.71H81.4908V223.798C81.4908 224.172 81.5999 224.477 81.818 224.711C82.0393 224.942 82.3307 225.058 82.692 225.058C82.9524 225.058 83.177 224.999 83.3658 224.882C83.5546 224.761 83.6816 224.6 83.7467 224.398ZM89.1932 220.683C89.8572 220.683 90.3797 220.922 90.7605 221.4C91.1447 221.879 91.3367 222.54 91.3367 223.383C91.3367 224.223 91.1479 224.883 90.7703 225.365C90.3927 225.844 89.8751 226.083 89.2176 226.083C88.8432 226.083 88.5128 225.998 88.2264 225.829C87.9432 225.657 87.7316 225.421 87.5916 225.121H87.5623V227.709H86.1365V220.766H87.5428V221.679H87.5721C87.7153 221.366 87.9269 221.122 88.2068 220.946C88.49 220.771 88.8188 220.683 89.1932 220.683ZM88.7146 224.936C89.0695 224.936 89.351 224.796 89.5594 224.516C89.771 224.236 89.8768 223.858 89.8768 223.383C89.8768 222.908 89.771 222.53 89.5594 222.25C89.351 221.967 89.0695 221.825 88.7146 221.825C88.3663 221.825 88.0864 221.968 87.8748 222.255C87.6632 222.538 87.5574 222.914 87.5574 223.383C87.5574 223.855 87.6616 224.232 87.8699 224.516C88.0815 224.796 88.3631 224.936 88.7146 224.936ZM96.6709 225.39C96.2054 225.871 95.5739 226.112 94.7764 226.112C93.9788 226.112 93.3473 225.87 92.8818 225.385C92.4163 224.9 92.1836 224.231 92.1836 223.378C92.1836 222.535 92.418 221.871 92.8867 221.386C93.3587 220.897 93.9886 220.653 94.7764 220.653C95.5674 220.653 96.1973 220.897 96.666 221.386C97.1348 221.871 97.3691 222.535 97.3691 223.378C97.3691 224.234 97.1364 224.905 96.6709 225.39ZM94.7764 225.023C95.1279 225.023 95.4062 224.88 95.6113 224.594C95.8164 224.307 95.9189 223.904 95.9189 223.383C95.9189 222.868 95.8164 222.466 95.6113 222.177C95.4062 221.887 95.1279 221.742 94.7764 221.742C94.4248 221.742 94.1449 221.887 93.9365 222.177C93.7314 222.466 93.6289 222.868 93.6289 223.383C93.6289 223.904 93.7314 224.307 93.9365 224.594C94.1416 224.88 94.4215 225.023 94.7764 225.023ZM98.3186 222.304C98.3186 221.806 98.5187 221.407 98.9191 221.107C99.3195 220.805 99.855 220.653 100.526 220.653C101.18 220.653 101.706 220.806 102.103 221.112C102.5 221.418 102.703 221.825 102.713 222.333H101.4C101.383 222.121 101.295 221.955 101.136 221.835C100.98 221.715 100.77 221.654 100.506 221.654C100.259 221.654 100.06 221.706 99.9104 221.811C99.7639 221.911 99.6906 222.047 99.6906 222.216C99.6906 222.47 99.9185 222.65 100.374 222.758L101.375 222.973C101.899 223.09 102.275 223.261 102.503 223.485C102.734 223.707 102.85 224.013 102.85 224.403C102.85 224.918 102.635 225.331 102.205 225.644C101.776 225.956 101.214 226.112 100.521 226.112C99.8306 226.112 99.2788 225.959 98.8654 225.653C98.452 225.347 98.2258 224.936 98.1867 224.418H99.5783C99.6141 224.639 99.715 224.81 99.8811 224.931C100.05 225.051 100.277 225.111 100.56 225.111C100.83 225.111 101.042 225.062 101.195 224.965C101.351 224.864 101.429 224.727 101.429 224.555C101.429 224.421 101.38 224.315 101.282 224.237C101.185 224.156 101.019 224.088 100.784 224.032L99.8176 223.817C98.8182 223.59 98.3186 223.085 98.3186 222.304ZM103.887 226V220.766H105.313V226H103.887ZM105.142 219.975C104.996 220.118 104.815 220.189 104.6 220.189C104.385 220.189 104.204 220.118 104.058 219.975C103.912 219.831 103.838 219.657 103.838 219.452C103.838 219.244 103.912 219.07 104.058 218.93C104.204 218.786 104.385 218.715 104.6 218.715C104.815 218.715 104.996 218.786 105.142 218.93C105.288 219.07 105.362 219.244 105.362 219.452C105.362 219.657 105.288 219.831 105.142 219.975ZM106.946 219.56H108.372V220.766H109.338V221.84H108.372V224.345C108.372 224.739 108.577 224.936 108.987 224.936C109.12 224.936 109.236 224.927 109.334 224.911V225.961C109.168 226 108.941 226.02 108.655 226.02C108.04 226.02 107.6 225.909 107.337 225.688C107.076 225.466 106.946 225.1 106.946 224.589V221.84H106.209V220.766H106.946V219.56Z" fill="#111827"/>
<path d="M41.2773 239.449H41.9844C42.0182 239.754 42.1667 239.999 42.4297 240.184C42.6953 240.368 43.0299 240.461 43.4336 240.461C43.8138 240.461 44.1276 240.371 44.375 240.191C44.625 240.009 44.75 239.78 44.75 239.504C44.75 239.267 44.6628 239.072 44.4883 238.918C44.3164 238.764 44.0404 238.638 43.6602 238.539L42.9375 238.352C42.4167 238.219 42.0365 238.034 41.7969 237.797C41.5573 237.557 41.4375 237.246 41.4375 236.863C41.4375 236.395 41.6224 236.012 41.9922 235.715C42.3646 235.418 42.8438 235.27 43.4297 235.27C43.9896 235.27 44.4531 235.421 44.8203 235.723C45.1875 236.022 45.3789 236.408 45.3945 236.879H44.6914C44.6602 236.577 44.5299 236.339 44.3008 236.164C44.0716 235.99 43.7734 235.902 43.4062 235.902C43.0417 235.902 42.7435 235.988 42.5117 236.16C42.2826 236.332 42.168 236.556 42.168 236.832C42.168 237.046 42.2513 237.221 42.418 237.359C42.5872 237.495 42.8633 237.612 43.2461 237.711L43.8359 237.867C44.4193 238.013 44.8385 238.207 45.0938 238.449C45.349 238.691 45.4766 239.014 45.4766 239.418C45.4766 239.934 45.2865 240.342 44.9062 240.645C44.5286 240.944 44.0156 241.094 43.3672 241.094C42.7682 241.094 42.2786 240.944 41.8984 240.645C41.5182 240.345 41.3112 239.947 41.2773 239.449ZM49.8273 236.938V241H49.1828V240.34H49.1672C48.9146 240.827 48.4849 241.07 47.8781 241.07C47.438 241.07 47.093 240.938 46.843 240.672C46.5956 240.404 46.4719 240.038 46.4719 239.574V236.938H47.1516V239.453C47.1516 240.13 47.4641 240.469 48.0891 240.469C48.4172 240.469 48.675 240.366 48.8625 240.16C49.0526 239.952 49.1477 239.673 49.1477 239.324V236.938H49.8273ZM52.6625 240.434C53.0167 240.434 53.3018 240.298 53.518 240.027C53.7341 239.757 53.8422 239.398 53.8422 238.953C53.8422 238.505 53.7341 238.146 53.518 237.875C53.3018 237.602 53.0167 237.465 52.6625 237.465C52.3109 237.465 52.0297 237.6 51.8188 237.871C51.6104 238.139 51.5063 238.5 51.5063 238.953C51.5063 239.406 51.6104 239.767 51.8188 240.035C52.0297 240.301 52.3109 240.434 52.6625 240.434ZM52.6859 242.531C52.2406 242.531 51.8578 242.418 51.5375 242.191C51.2172 241.967 51.0284 241.682 50.9711 241.336H51.6703C51.738 241.523 51.8656 241.673 52.0531 241.785C52.2406 241.897 52.4607 241.953 52.7133 241.953C53.0622 241.953 53.337 241.861 53.5375 241.676C53.7406 241.491 53.8422 241.246 53.8422 240.941V240.301H53.8266C53.699 240.525 53.5206 240.703 53.2914 240.836C53.0622 240.966 52.807 241.031 52.5258 241.031C52.0076 241.031 51.5922 240.842 51.2797 240.465C50.9672 240.087 50.8109 239.583 50.8109 238.953C50.8109 238.318 50.9672 237.811 51.2797 237.434C51.5948 237.056 52.0154 236.867 52.5414 236.867C52.8279 236.867 53.0857 236.934 53.3148 237.066C53.544 237.199 53.7263 237.384 53.8617 237.621H53.8734V236.938H54.5219V240.918C54.5219 241.405 54.3552 241.796 54.0219 242.09C53.6885 242.384 53.2432 242.531 52.6859 242.531ZM57.3375 237.457C57.0224 237.457 56.7607 237.566 56.5523 237.785C56.3466 238.001 56.2333 238.28 56.2125 238.621H58.4195C58.4117 238.277 58.3089 237.997 58.1109 237.781C57.913 237.565 57.6552 237.457 57.3375 237.457ZM58.4039 239.836H59.0719C59.012 240.195 58.8245 240.491 58.5094 240.723C58.1969 240.954 57.8206 241.07 57.3805 241.07C56.7997 241.07 56.3427 240.883 56.0094 240.508C55.676 240.133 55.5094 239.625 55.5094 238.984C55.5094 238.349 55.676 237.837 56.0094 237.449C56.3453 237.061 56.7919 236.867 57.3492 236.867C57.8961 236.867 58.3284 237.051 58.6461 237.418C58.9638 237.785 59.1227 238.277 59.1227 238.895V239.152H56.2086V239.191C56.2086 239.582 56.3154 239.895 56.5289 240.129C56.7424 240.363 57.0315 240.48 57.3961 240.48C57.6513 240.48 57.8687 240.422 58.0484 240.305C58.2281 240.188 58.3466 240.031 58.4039 239.836ZM60.0398 238.059C60.0398 237.71 60.1805 237.424 60.4617 237.203C60.7456 236.979 61.1102 236.867 61.5555 236.867C61.9747 236.867 62.3237 236.979 62.6023 237.203C62.881 237.427 63.0281 237.711 63.0438 238.055H62.3953C62.3719 237.857 62.2833 237.702 62.1297 237.59C61.9786 237.478 61.7794 237.422 61.532 237.422C61.2846 237.422 61.0854 237.478 60.9344 237.59C60.7833 237.699 60.7078 237.844 60.7078 238.023C60.7078 238.299 60.9331 238.495 61.3836 238.609L62.0125 238.762C62.4214 238.866 62.7091 239.001 62.8758 239.168C63.0451 239.332 63.1297 239.564 63.1297 239.863C63.1297 240.217 62.9786 240.508 62.6766 240.734C62.3745 240.958 61.9865 241.07 61.5125 241.07C61.0698 241.07 60.7039 240.961 60.4148 240.742C60.1284 240.521 59.9669 240.229 59.9305 239.867H60.6102C60.6857 240.299 61.0008 240.516 61.5555 240.516C61.8289 240.516 62.0451 240.462 62.2039 240.355C62.3654 240.246 62.4461 240.099 62.4461 239.914C62.4461 239.768 62.3979 239.652 62.3016 239.566C62.2078 239.48 62.0477 239.408 61.8211 239.348L61.1063 239.164C60.3953 238.982 60.0398 238.613 60.0398 238.059ZM64.3555 235.957H65.0352V236.938H65.8242V237.496H65.0352V239.91C65.0352 240.095 65.0755 240.232 65.1562 240.32C65.237 240.406 65.3646 240.449 65.5391 240.449C65.6484 240.449 65.7422 240.443 65.8203 240.43V241C65.7318 241.021 65.5885 241.031 65.3906 241.031C65.0182 241.031 64.7526 240.948 64.5938 240.781C64.4349 240.615 64.3555 240.336 64.3555 239.945V237.496H63.75V236.938H64.3555V235.957ZM68.3625 237.457C68.0474 237.457 67.7857 237.566 67.5773 237.785C67.3716 238.001 67.2583 238.28 67.2375 238.621H69.4445C69.4367 238.277 69.3339 237.997 69.1359 237.781C68.938 237.565 68.6802 237.457 68.3625 237.457ZM69.4289 239.836H70.0969C70.037 240.195 69.8495 240.491 69.5344 240.723C69.2219 240.954 68.8456 241.07 68.4055 241.07C67.8247 241.07 67.3677 240.883 67.0344 240.508C66.701 240.133 66.5344 239.625 66.5344 238.984C66.5344 238.349 66.701 237.837 67.0344 237.449C67.3703 237.061 67.8169 236.867 68.3742 236.867C68.9211 236.867 69.3534 237.051 69.6711 237.418C69.9888 237.785 70.1477 238.277 70.1477 238.895V239.152H67.2336V239.191C67.2336 239.582 67.3404 239.895 67.5539 240.129C67.7674 240.363 68.0565 240.48 68.4211 240.48C68.6763 240.48 68.8937 240.422 69.0734 240.305C69.2531 240.188 69.3716 240.031 69.4289 239.836ZM72.6742 241.07C72.1534 241.07 71.7328 240.879 71.4125 240.496C71.0948 240.113 70.9359 239.604 70.9359 238.969C70.9359 238.336 71.0948 237.828 71.4125 237.445C71.7302 237.06 72.1456 236.867 72.6586 236.867C72.9451 236.867 73.2016 236.932 73.4281 237.062C73.6547 237.193 73.8292 237.371 73.9516 237.598H73.9672V235.363H74.6469V241H73.9984V240.312H73.9867C73.8539 240.549 73.6742 240.736 73.4477 240.871C73.2211 241.004 72.9633 241.07 72.6742 241.07ZM72.8031 237.465C72.4438 237.465 72.1586 237.602 71.9477 237.875C71.7367 238.146 71.6313 238.51 71.6313 238.969C71.6313 239.43 71.7367 239.796 71.9477 240.066C72.1586 240.337 72.4438 240.473 72.8031 240.473C73.1547 240.473 73.4372 240.336 73.6508 240.062C73.8643 239.786 73.9711 239.422 73.9711 238.969C73.9711 238.516 73.863 238.152 73.6469 237.879C73.4333 237.603 73.1521 237.465 72.8031 237.465ZM77.7352 238.059C77.7352 237.71 77.8758 237.424 78.157 237.203C78.4409 236.979 78.8055 236.867 79.2508 236.867C79.6701 236.867 80.019 236.979 80.2977 237.203C80.5763 237.427 80.7234 237.711 80.7391 238.055H80.0906C80.0672 237.857 79.9786 237.702 79.825 237.59C79.674 237.478 79.4747 237.422 79.2273 237.422C78.9799 237.422 78.7807 237.478 78.6297 237.59C78.4786 237.699 78.4031 237.844 78.4031 238.023C78.4031 238.299 78.6284 238.495 79.0789 238.609L79.7078 238.762C80.1167 238.866 80.4044 239.001 80.5711 239.168C80.7404 239.332 80.825 239.564 80.825 239.863C80.825 240.217 80.674 240.508 80.3719 240.734C80.0698 240.958 79.6818 241.07 79.2078 241.07C78.7651 241.07 78.3992 240.961 78.1102 240.742C77.8237 240.521 77.6622 240.229 77.6258 239.867H78.3055C78.381 240.299 78.6961 240.516 79.2508 240.516C79.5242 240.516 79.7404 240.462 79.8992 240.355C80.0607 240.246 80.1414 240.099 80.1414 239.914C80.1414 239.768 80.0932 239.652 79.9969 239.566C79.9031 239.48 79.743 239.408 79.5164 239.348L78.8016 239.164C78.0906 238.982 77.7352 238.613 77.7352 238.059ZM83.8047 236.867C84.3255 236.867 84.7448 237.059 85.0625 237.441C85.3828 237.824 85.543 238.333 85.543 238.969C85.543 239.602 85.3841 240.111 85.0664 240.496C84.7487 240.879 84.3333 241.07 83.8203 241.07C83.5339 241.07 83.2773 241.005 83.0508 240.875C82.8242 240.745 82.6497 240.566 82.5273 240.34H82.5117V242.355H81.832V236.938H82.4766V237.625H82.4922C82.6198 237.391 82.7982 237.206 83.0273 237.07C83.2565 236.935 83.5156 236.867 83.8047 236.867ZM83.6719 240.473C84.0339 240.473 84.3203 240.337 84.5312 240.066C84.7422 239.796 84.8477 239.43 84.8477 238.969C84.8477 238.508 84.7422 238.142 84.5312 237.871C84.3203 237.6 84.0339 237.465 83.6719 237.465C83.3229 237.465 83.0417 237.603 82.8281 237.879C82.6146 238.155 82.5078 238.518 82.5078 238.969C82.5078 239.422 82.6146 239.786 82.8281 240.062C83.0417 240.336 83.3229 240.473 83.6719 240.473ZM86.5656 241V235.363H87.2453V241H86.5656ZM88.4984 241V236.938H89.1781V241H88.4984ZM88.8383 236.254C88.7237 236.254 88.6247 236.212 88.5414 236.129C88.4581 236.046 88.4164 235.947 88.4164 235.832C88.4164 235.715 88.4581 235.616 88.5414 235.535C88.6247 235.452 88.7237 235.41 88.8383 235.41C88.9555 235.41 89.0557 235.452 89.1391 235.535C89.2224 235.616 89.2641 235.715 89.2641 235.832C89.2641 235.947 89.2224 236.046 89.1391 236.129C89.0557 236.212 88.9555 236.254 88.8383 236.254ZM90.6148 235.957H91.2945V236.938H92.0836V237.496H91.2945V239.91C91.2945 240.095 91.3349 240.232 91.4156 240.32C91.4964 240.406 91.624 240.449 91.7984 240.449C91.9078 240.449 92.0016 240.443 92.0797 240.43V241C91.9911 241.021 91.8479 241.031 91.65 241.031C91.2776 241.031 91.012 240.948 90.8531 240.781C90.6943 240.615 90.6148 240.336 90.6148 239.945V237.496H90.0094V236.938H90.6148V235.957Z" fill="#6B7280"/>
<path d="M139.996 233H138.816V228.336H137.188V227.363H141.629V228.336H139.996V233ZM144.999 232.512C144.627 232.897 144.122 233.09 143.484 233.09C142.846 233.09 142.34 232.896 141.968 232.508C141.596 232.12 141.409 231.585 141.409 230.902C141.409 230.228 141.597 229.697 141.972 229.309C142.349 228.918 142.853 228.723 143.484 228.723C144.116 228.723 144.62 228.918 144.995 229.309C145.37 229.697 145.558 230.228 145.558 230.902C145.558 231.587 145.372 232.124 144.999 232.512ZM143.484 232.219C143.765 232.219 143.988 232.104 144.152 231.875C144.316 231.646 144.398 231.323 144.398 230.906C144.398 230.495 144.316 230.173 144.152 229.941C143.988 229.71 143.765 229.594 143.484 229.594C143.202 229.594 142.978 229.71 142.812 229.941C142.648 230.173 142.566 230.495 142.566 230.906C142.566 231.323 142.648 231.646 142.812 231.875C142.976 232.104 143.2 232.219 143.484 232.219ZM148.002 233.066C147.479 233.066 147.064 232.872 146.756 232.484C146.449 232.096 146.295 231.568 146.295 230.898C146.295 230.234 146.449 229.71 146.756 229.324C147.066 228.939 147.484 228.746 148.01 228.746C148.307 228.746 148.567 228.818 148.791 228.961C149.018 229.104 149.183 229.294 149.288 229.531H149.311V227.363H150.452V233H149.327V232.281H149.307C149.203 232.518 149.035 232.708 148.803 232.852C148.571 232.995 148.304 233.066 148.002 233.066ZM148.389 229.66C148.103 229.66 147.876 229.772 147.709 229.996C147.545 230.22 147.463 230.523 147.463 230.906C147.463 231.292 147.545 231.595 147.709 231.816C147.876 232.038 148.103 232.148 148.389 232.148C148.673 232.148 148.898 232.038 149.065 231.816C149.234 231.592 149.319 231.289 149.319 230.906C149.319 230.526 149.234 230.224 149.065 230C148.898 229.773 148.673 229.66 148.389 229.66ZM153.13 232.242C153.383 232.242 153.597 232.169 153.771 232.023C153.948 231.875 154.037 231.689 154.037 231.465V231.16L153.154 231.215C152.94 231.23 152.775 231.284 152.658 231.375C152.543 231.466 152.486 231.586 152.486 231.734C152.486 231.891 152.545 232.014 152.662 232.105C152.779 232.197 152.935 232.242 153.13 232.242ZM152.755 233.066C152.352 233.066 152.017 232.948 151.752 232.711C151.486 232.474 151.353 232.169 151.353 231.797C151.353 231.417 151.494 231.118 151.775 230.902C152.056 230.686 152.459 230.562 152.982 230.531L154.037 230.469V230.191C154.037 229.999 153.973 229.848 153.845 229.738C153.72 229.629 153.55 229.574 153.334 229.574C153.125 229.574 152.955 229.621 152.822 229.715C152.692 229.809 152.612 229.935 152.584 230.094H151.541C151.561 229.682 151.737 229.352 152.068 229.102C152.399 228.849 152.837 228.723 153.384 228.723C153.921 228.723 154.351 228.85 154.673 229.105C154.996 229.361 155.158 229.699 155.158 230.121V233H154.056V232.359H154.033C153.918 232.578 153.744 232.751 153.509 232.879C153.275 233.004 153.024 233.066 152.755 233.066ZM156.708 234.551C156.458 234.551 156.315 234.547 156.278 234.539V233.66C156.302 233.665 156.397 233.668 156.563 233.668C156.774 233.668 156.934 233.632 157.044 233.559C157.153 233.488 157.227 233.37 157.266 233.203C157.266 233.201 157.273 233.168 157.286 233.105C157.299 233.043 157.304 233.009 157.302 233.004L155.845 228.812H157.098L157.989 232.086H158.009L158.899 228.812H160.102L158.661 233.094C158.481 233.63 158.244 234.007 157.95 234.223C157.658 234.441 157.244 234.551 156.708 234.551Z" fill="#FFC08A"/>
<g filter="url(#filter2_d_1_1239)">
<rect x="162" y="127" width="160" height="97.6744" rx="11.1628" fill="white"/>
</g>
<path d="M177.577 148.163H176.205V142.739H174.311V141.608H179.475V142.739H177.577V148.163ZM180.431 148.163V141.608H181.735V144.161H181.762C181.892 143.852 182.088 143.616 182.348 143.453C182.612 143.286 182.926 143.203 183.293 143.203C183.829 143.203 184.245 143.366 184.542 143.693C184.842 144.017 184.992 144.462 184.992 145.029V148.163H183.665V145.31C183.665 144.992 183.587 144.746 183.429 144.57C183.275 144.391 183.049 144.302 182.752 144.302C182.443 144.302 182.2 144.402 182.021 144.602C181.845 144.799 181.758 145.059 181.758 145.383V148.163H180.431ZM186.143 148.163V143.294H187.469V148.163H186.143ZM187.31 142.558C187.174 142.691 187.006 142.758 186.806 142.758C186.606 142.758 186.438 142.691 186.302 142.558C186.166 142.425 186.097 142.263 186.097 142.072C186.097 141.878 186.166 141.716 186.302 141.586C186.438 141.453 186.606 141.386 186.806 141.386C187.006 141.386 187.174 141.453 187.31 141.586C187.446 141.716 187.515 141.878 187.515 142.072C187.515 142.263 187.446 142.425 187.31 142.558ZM188.552 144.724C188.552 144.261 188.738 143.89 189.111 143.612C189.483 143.33 189.981 143.189 190.605 143.189C191.214 143.189 191.703 143.331 192.072 143.616C192.442 143.901 192.631 144.279 192.64 144.752H191.418C191.403 144.555 191.321 144.4 191.173 144.288C191.028 144.176 190.832 144.12 190.587 144.12C190.357 144.12 190.172 144.169 190.033 144.266C189.897 144.359 189.828 144.485 189.828 144.643C189.828 144.879 190.04 145.047 190.464 145.147L191.396 145.347C191.883 145.456 192.233 145.615 192.445 145.824C192.66 146.029 192.767 146.314 192.767 146.677C192.767 147.156 192.567 147.541 192.168 147.831C191.768 148.122 191.246 148.267 190.601 148.267C189.959 148.267 189.445 148.125 189.061 147.84C188.676 147.556 188.466 147.173 188.43 146.691H189.724C189.757 146.897 189.851 147.056 190.006 147.168C190.163 147.28 190.374 147.336 190.637 147.336C190.888 147.336 191.085 147.291 191.227 147.2C191.373 147.106 191.445 146.979 191.445 146.818C191.445 146.694 191.4 146.596 191.309 146.523C191.218 146.447 191.064 146.384 190.846 146.332L189.947 146.132C189.017 145.92 188.552 145.451 188.552 144.724ZM195.833 148.163V143.294H197.114V144.175H197.141C197.244 143.878 197.419 143.642 197.668 143.466C197.916 143.291 198.204 143.203 198.531 143.203C198.882 143.203 199.176 143.291 199.412 143.466C199.648 143.639 199.807 143.884 199.889 144.202H199.916C200.025 143.896 200.214 143.654 200.484 143.475C200.756 143.294 201.071 143.203 201.429 143.203C201.907 143.203 202.292 143.353 202.582 143.652C202.876 143.952 203.023 144.347 203.023 144.838V148.163H201.697V145.17C201.697 144.888 201.628 144.673 201.492 144.525C201.356 144.373 201.159 144.297 200.902 144.297C200.65 144.297 200.447 144.381 200.293 144.547C200.142 144.714 200.066 144.933 200.066 145.206V148.163H198.79V145.129C198.79 144.868 198.72 144.665 198.581 144.52C198.441 144.372 198.249 144.297 198.004 144.297C197.752 144.297 197.548 144.384 197.391 144.556C197.236 144.729 197.159 144.951 197.159 145.224V148.163H195.833ZM208.139 147.595C207.706 148.043 207.119 148.267 206.377 148.267C205.635 148.267 205.048 148.042 204.615 147.59C204.182 147.139 203.965 146.517 203.965 145.724C203.965 144.939 204.183 144.322 204.619 143.87C205.058 143.416 205.644 143.189 206.377 143.189C207.113 143.189 207.699 143.416 208.135 143.87C208.571 144.322 208.789 144.939 208.789 145.724C208.789 146.52 208.572 147.144 208.139 147.595ZM206.377 147.254C206.704 147.254 206.963 147.121 207.154 146.855C207.344 146.588 207.44 146.213 207.44 145.728C207.44 145.25 207.344 144.876 207.154 144.606C206.963 144.337 206.704 144.202 206.377 144.202C206.05 144.202 205.79 144.337 205.596 144.606C205.405 144.876 205.31 145.25 205.31 145.728C205.31 146.213 205.405 146.588 205.596 146.855C205.787 147.121 206.047 147.254 206.377 147.254ZM209.754 148.163V143.294H211.035V144.161H211.062C211.195 143.852 211.389 143.616 211.643 143.453C211.901 143.286 212.214 143.203 212.584 143.203C213.123 143.203 213.539 143.363 213.833 143.684C214.126 144.005 214.273 144.452 214.273 145.024V148.163H212.947V145.301C212.947 144.98 212.871 144.733 212.72 144.561C212.568 144.388 212.346 144.302 212.052 144.302C211.758 144.302 211.522 144.4 211.344 144.597C211.168 144.794 211.08 145.051 211.08 145.369V148.163H209.754ZM215.747 142.172H217.073V143.294H217.973V144.293H217.073V146.623C217.073 146.989 217.264 147.173 217.646 147.173C217.77 147.173 217.877 147.165 217.968 147.15V148.126C217.814 148.163 217.603 148.181 217.337 148.181C216.764 148.181 216.356 148.078 216.11 147.872C215.868 147.666 215.747 147.326 215.747 146.85V144.293H215.061V143.294H215.747V142.172ZM219.01 148.163V141.608H220.314V144.161H220.341C220.471 143.852 220.667 143.616 220.927 143.453C221.19 143.286 221.505 143.203 221.872 143.203C222.408 143.203 222.824 143.366 223.121 143.693C223.421 144.017 223.57 144.462 223.57 145.029V148.163H222.244V145.31C222.244 144.992 222.165 144.746 222.008 144.57C221.854 144.391 221.628 144.302 221.331 144.302C221.022 144.302 220.779 144.402 220.6 144.602C220.424 144.799 220.336 145.059 220.336 145.383V148.163H219.01Z" fill="#111827"/>
<line x1="174.558" y1="157.698" x2="174.558" y2="213.512" stroke="#F3F4F6" stroke-width="0.930233"/>
<line x1="174.093" y1="213.047" x2="312.698" y2="213.047" stroke="#F3F4F6" stroke-width="0.930233"/>
<line x1="174.093" y1="190.721" x2="312.698" y2="190.721" stroke="#F3F4F6" stroke-width="0.930233"/>
<line x1="174.093" y1="168.395" x2="312.698" y2="168.395" stroke="#F3F4F6" stroke-width="0.930233"/>
<path d="M175.023 212.116C186.186 208.86 198.186 187.465 208.977 187.465C222.465 187.465 231.302 203.744 244.326 203.744C259.674 203.744 264.791 164.674 280.14 164.674C294.558 164.674 301.07 180.488 311.768 180.488" stroke="#FFC08A" stroke-width="1.39535" stroke-linecap="round"/>
<rect x="191.767" y="165.14" width="36.2791" height="14.8837" rx="3.72093" fill="#111827"/>
<path d="M198.567 174.172H198.246V173.881C197.889 173.86 197.608 173.765 197.404 173.597C197.201 173.427 197.099 173.203 197.097 172.925H197.747C197.754 173.043 197.803 173.142 197.894 173.222C197.985 173.303 198.102 173.35 198.246 173.365V172.48L198.006 172.423C197.732 172.359 197.523 172.25 197.379 172.096C197.236 171.94 197.165 171.744 197.165 171.508C197.165 171.229 197.26 171.005 197.449 170.835C197.64 170.664 197.906 170.565 198.246 170.538V170.227H198.567V170.54C198.884 170.569 199.138 170.67 199.327 170.842C199.518 171.013 199.616 171.23 199.62 171.492H198.989C198.986 171.384 198.945 171.29 198.866 171.21C198.788 171.13 198.688 171.081 198.567 171.065V171.912L198.81 171.96C199.391 172.087 199.682 172.394 199.682 172.882C199.682 173.169 199.585 173.4 199.391 173.574C199.199 173.747 198.924 173.848 198.567 173.879V174.172ZM199.039 172.954C199.039 172.844 199 172.754 198.923 172.686C198.846 172.618 198.727 172.568 198.567 172.536V173.368C198.715 173.359 198.831 173.318 198.914 173.245C198.997 173.172 199.039 173.075 199.039 172.954ZM197.822 171.451C197.822 171.654 197.963 171.785 198.246 171.846V171.063C198.122 171.07 198.02 171.11 197.94 171.183C197.861 171.254 197.822 171.343 197.822 171.451ZM200.367 171.569C200.367 171.259 200.479 171.005 200.703 170.808C200.929 170.61 201.22 170.511 201.578 170.511C201.921 170.511 202.201 170.6 202.418 170.779C202.635 170.956 202.743 171.182 202.743 171.458C202.743 171.556 202.728 171.651 202.697 171.744C202.669 171.835 202.622 171.926 202.557 172.019C202.493 172.109 202.429 172.192 202.363 172.266C202.298 172.339 202.214 172.427 202.109 172.532L201.31 173.302V173.315H202.788V173.86H200.406V173.399L201.641 172.209C201.808 172.043 201.921 171.909 201.982 171.807C202.044 171.706 202.075 171.598 202.075 171.485C202.075 171.361 202.026 171.256 201.927 171.172C201.829 171.087 201.705 171.044 201.555 171.044C201.396 171.044 201.264 171.094 201.16 171.194C201.055 171.293 201.003 171.418 201.003 171.569V171.58H200.367V171.569ZM203.964 174.578H203.467L203.637 173.297H204.269L203.964 174.578ZM207.25 173.472C207.016 173.779 206.692 173.933 206.281 173.933C205.869 173.933 205.545 173.78 205.309 173.474C205.072 173.167 204.954 172.748 204.954 172.216C204.954 171.688 205.072 171.271 205.309 170.967C205.546 170.661 205.87 170.508 206.281 170.508C206.691 170.508 207.014 170.661 207.25 170.965C207.487 171.269 207.605 171.686 207.605 172.214C207.605 172.744 207.487 173.163 207.25 173.472ZM205.817 173.077C205.929 173.281 206.084 173.384 206.281 173.384C206.477 173.384 206.631 173.282 206.742 173.079C206.852 172.875 206.907 172.587 206.907 172.216C206.907 171.848 206.851 171.564 206.739 171.362C206.629 171.159 206.476 171.058 206.281 171.058C206.085 171.058 205.932 171.159 205.82 171.362C205.707 171.565 205.651 171.85 205.651 172.216C205.651 172.586 205.707 172.873 205.817 173.077ZM210.559 173.472C210.324 173.779 210.001 173.933 209.589 173.933C209.177 173.933 208.853 173.78 208.617 173.474C208.381 173.167 208.263 172.748 208.263 172.216C208.263 171.688 208.381 171.271 208.617 170.967C208.855 170.661 209.179 170.508 209.589 170.508C210 170.508 210.323 170.661 210.559 170.965C210.795 171.269 210.913 171.686 210.913 172.214C210.913 172.744 210.795 173.163 210.559 173.472ZM209.126 173.077C209.238 173.281 209.392 173.384 209.589 173.384C209.786 173.384 209.94 173.282 210.05 173.079C210.161 172.875 210.216 172.587 210.216 172.216C210.216 171.848 210.16 171.564 210.048 171.362C209.937 171.159 209.785 171.058 209.589 171.058C209.394 171.058 209.24 171.159 209.128 171.362C209.016 171.565 208.96 171.85 208.96 172.216C208.96 172.586 209.015 172.873 209.126 173.077ZM213.868 173.472C213.633 173.779 213.31 173.933 212.898 173.933C212.486 173.933 212.162 173.78 211.926 173.474C211.69 173.167 211.572 172.748 211.572 172.216C211.572 171.688 211.69 171.271 211.926 170.967C212.164 170.661 212.488 170.508 212.898 170.508C213.308 170.508 213.631 170.661 213.868 170.965C214.104 171.269 214.222 171.686 214.222 172.214C214.222 172.744 214.104 173.163 213.868 173.472ZM212.435 173.077C212.547 173.281 212.701 173.384 212.898 173.384C213.095 173.384 213.248 173.282 213.359 173.079C213.469 172.875 213.525 172.587 213.525 172.216C213.525 171.848 213.469 171.564 213.357 171.362C213.246 171.159 213.093 171.058 212.898 171.058C212.703 171.058 212.549 171.159 212.437 171.362C212.325 171.565 212.269 171.85 212.269 172.216C212.269 172.586 212.324 172.873 212.435 173.077ZM215.484 173.781C215.413 173.852 215.327 173.888 215.226 173.888C215.124 173.888 215.038 173.852 214.967 173.781C214.895 173.71 214.86 173.624 214.86 173.522C214.86 173.421 214.895 173.334 214.967 173.263C215.038 173.192 215.124 173.156 215.226 173.156C215.327 173.156 215.413 173.192 215.484 173.263C215.556 173.334 215.591 173.421 215.591 173.522C215.591 173.624 215.556 173.71 215.484 173.781ZM218.568 173.472C218.334 173.779 218.01 173.933 217.599 173.933C217.187 173.933 216.863 173.78 216.626 173.474C216.39 173.167 216.272 172.748 216.272 172.216C216.272 171.688 216.39 171.271 216.626 170.967C216.864 170.661 217.188 170.508 217.599 170.508C218.009 170.508 218.332 170.661 218.568 170.965C218.804 171.269 218.923 171.686 218.923 172.214C218.923 172.744 218.804 173.163 218.568 173.472ZM217.135 173.077C217.247 173.281 217.402 173.384 217.599 173.384C217.795 173.384 217.949 173.282 218.06 173.079C218.17 172.875 218.225 172.587 218.225 172.216C218.225 171.848 218.169 171.564 218.057 171.362C217.947 171.159 217.794 171.058 217.599 171.058C217.403 171.058 217.25 171.159 217.137 171.362C217.025 171.565 216.969 171.85 216.969 172.216C216.969 172.586 217.025 172.873 217.135 173.077ZM221.877 173.472C221.642 173.779 221.319 173.933 220.907 173.933C220.495 173.933 220.171 173.78 219.935 173.474C219.699 173.167 219.581 172.748 219.581 172.216C219.581 171.688 219.699 171.271 219.935 170.967C220.173 170.661 220.497 170.508 220.907 170.508C221.318 170.508 221.641 170.661 221.877 170.965C222.113 171.269 222.231 171.686 222.231 172.214C222.231 172.744 222.113 173.163 221.877 173.472ZM220.444 173.077C220.556 173.281 220.71 173.384 220.907 173.384C221.104 173.384 221.258 173.282 221.368 173.079C221.479 172.875 221.534 172.587 221.534 172.216C221.534 171.848 221.478 171.564 221.366 171.362C221.255 171.159 221.103 171.058 220.907 171.058C220.712 171.058 220.558 171.159 220.446 171.362C220.334 171.565 220.278 171.85 220.278 172.216C220.278 172.586 220.333 172.873 220.444 173.077Z" fill="white"/>
<circle cx="209.442" cy="187.465" r="2.32558" fill="white" stroke="#FFC08A" stroke-width="0.930233"/>
<defs>
<filter id="filter0_d_1_1239" x="15.8121" y="0.82959" width="98.1583" height="98.1583" filterUnits="userSpaceOnUse" color-interpolation-filters="sRGB">
<feFlood flood-opacity="0" result="BackgroundImageFix"/>
<feColorMatrix in="SourceAlpha" type="matrix" values="0 0 0 0 0 0 0 0 0 0 0 0 0 0 0 0 0 0 127 0" result="hardAlpha"/>
<feOffset dx="-5" dy="10"/>
<feGaussianBlur stdDeviation="12.5"/>
<feComposite in2="hardAlpha" operator="out"/>
<feColorMatrix type="matrix" values="0 0 0 0 0.611765 0 0 0 0 0.639216 0 0 0 0 0.686275 0 0 0 0.16 0"/>
<feBlend mode="normal" in2="BackgroundImageFix" result="effect1_dropShadow_1_1239"/>
<feBlend mode="normal" in="SourceGraphic" in2="effect1_dropShadow_1_1239" result="shape"/>
</filter>
<filter id="filter1_d_1_1239" x="0" y="189" width="192" height="101" filterUnits="userSpaceOnUse" color-interpolation-filters="sRGB">
<feFlood flood-opacity="0" result="BackgroundImageFix"/>
<feColorMatrix in="SourceAlpha" type="matrix" values="0 0 0 0 0 0 0 0 0 0 0 0 0 0 0 0 0 0 127 0" result="hardAlpha"/>
<feOffset dx="-5" dy="10"/>
<feGaussianBlur stdDeviation="12.5"/>
<feComposite in2="hardAlpha" operator="out"/>
<feColorMatrix type="matrix" values="0 0 0 0 0.611765 0 0 0 0 0.639216 0 0 0 0 0.686275 0 0 0 0.08 0"/>
<feBlend mode="normal" in2="BackgroundImageFix" result="effect1_dropShadow_1_1239"/>
<feBlend mode="normal" in="SourceGraphic" in2="effect1_dropShadow_1_1239" result="shape"/>
</filter>
<filter id="filter2_d_1_1239" x="122" y="117" width="210" height="147.674" filterUnits="userSpaceOnUse" color-interpolation-filters="sRGB">
<feFlood flood-opacity="0" result="BackgroundImageFix"/>
<feColorMatrix in="SourceAlpha" type="matrix" values="0 0 0 0 0 0 0 0 0 0 0 0 0 0 0 0 0 0 127 0" result="hardAlpha"/>
<feOffset dx="-15" dy="15"/>
<feGaussianBlur stdDeviation="12.5"/>
<feComposite in2="hardAlpha" operator="out"/>
<feColorMatrix type="matrix" values="0 0 0 0 0.419608 0 0 0 0 0.447059 0 0 0 0 0.501961 0 0 0 0.06 0"/>
<feBlend mode="normal" in2="BackgroundImageFix" result="effect1_dropShadow_1_1239"/>
<feBlend mode="normal" in="SourceGraphic" in2="effect1_dropShadow_1_1239" result="shape"/>
</filter>
</defs>
</svg>
