<svg width="259" height="218" viewBox="0 0 259 218" fill="none" xmlns="http://www.w3.org/2000/svg">
<path d="M203.714 142.791C203.715 151.558 202.169 160.257 199.147 168.486C199.021 168.823 198.901 169.154 198.77 169.485C194.71 180.07 188.296 189.592 180.013 197.333C179.351 197.949 178.683 198.555 177.998 199.143C167.184 208.542 153.895 214.633 139.715 216.69C125.536 218.747 111.064 216.683 98.025 210.743C84.986 204.804 73.9299 195.24 66.1747 183.192C58.4196 171.144 54.2925 157.12 54.2855 142.791V142.569C54.2962 139.013 54.5576 135.462 55.0678 131.943L55.1191 131.617C56.8841 119.813 61.4713 108.609 68.4913 98.9563C77.7536 86.1716 90.8272 76.6494 105.837 71.7556C120.846 66.8618 137.019 66.8481 152.037 71.7163C167.055 76.5846 180.144 86.0846 189.428 98.8535C198.712 111.622 203.714 127.004 203.714 142.791Z" fill="white"/>
<path d="M128.997 217.792C109.113 217.77 90.0496 209.862 75.9895 195.801C61.9294 181.74 54.0212 162.676 54 142.792V142.569C54.0125 139.013 54.2758 135.462 54.7879 131.943L54.8393 131.611C56.1211 122.919 58.94 114.524 63.1641 106.819C64.6917 104.034 66.3947 101.348 68.2629 98.7793V98.7451C75.2366 89.1703 84.3716 81.3768 94.925 75.9982C105.478 70.6196 117.152 67.8078 128.997 67.7915C170.353 67.7915 204 101.434 204 142.792C204.01 151.598 202.464 160.338 199.432 168.606L199.341 168.857C199.244 169.114 199.152 169.366 199.05 169.611C194.961 180.24 188.519 189.805 180.208 197.59C179.465 198.275 178.809 198.869 178.186 199.406C164.544 211.267 147.074 217.797 128.997 217.792ZM68.7082 99.139C66.8613 101.695 65.1774 104.365 63.6665 107.133C59.4833 114.765 56.6842 123.078 55.3989 131.686L55.3475 132.017C54.8435 135.518 54.584 139.049 54.571 142.586V142.792C54.5702 157.071 58.6774 171.049 66.4024 183.059C74.1274 195.068 85.1441 204.601 98.1381 210.521C111.132 216.441 125.555 218.498 139.686 216.446C153.816 214.394 167.059 208.32 177.832 198.949C178.449 198.418 179.106 197.807 179.842 197.144C188.082 189.426 194.469 179.943 198.524 169.406C198.627 169.154 198.718 168.909 198.81 168.663L198.901 168.412C201.908 160.205 203.44 151.532 203.429 142.792C203.429 101.748 170.039 68.3625 128.997 68.3625C117.241 68.3841 105.656 71.18 95.184 76.5229C84.712 81.8658 75.6487 89.6047 68.7311 99.1105C68.7268 99.1223 68.7188 99.1323 68.7082 99.139Z" fill="#FFAB63"/>
<path d="M67.9888 104.535C67.9888 104.535 85.1864 101.942 88.8635 101.029C92.5405 100.115 100.283 95.7871 100.409 95.7014C101.748 94.9919 103.133 94.372 104.554 93.8457C105.821 93.482 107.11 93.1997 108.414 93.0006C111.067 92.5627 113.787 92.7584 116.35 93.5716C120.455 94.9763 123.584 98.2595 126.782 101.194C132.006 105.962 137.761 109.674 143.54 113.671C145.041 114.715 146.583 115.846 147.405 117.485C147.704 117.89 147.875 118.375 147.897 118.878C147.918 119.381 147.789 119.879 147.526 120.308C147.263 120.737 146.878 121.078 146.42 121.287C145.962 121.496 145.452 121.564 144.956 121.482C143.243 121.482 141.673 120.791 140.063 120.288C138.624 119.837 135.318 119.146 134.501 121.002C133.85 122.492 136.745 123.726 136.3 125.536C135.94 126.975 134.433 127.026 133.279 126.923C132.834 126.883 129.677 126.352 129.54 126.181C130.327 127.209 129.46 128.859 128.203 129.179C126.947 129.499 125.737 128.773 124.738 128.088C124.666 128.753 124.407 129.385 123.991 129.909C123.574 130.432 123.017 130.827 122.385 131.046C119.53 132.228 116.676 131.28 113.821 130.686C111.24 130.149 108.591 130.07 106.015 129.464C102.087 128.539 98.393 126.906 94.596 125.559C90.3766 124.057 80.5273 126.409 80.5273 126.409L67.9888 104.535Z" fill="white"/>
<path d="M119.399 131.909C117.912 131.851 116.435 131.629 114.997 131.246L113.769 130.978C112.582 130.732 111.354 130.578 110.161 130.407C108.749 130.257 107.346 130.032 105.958 129.733C103.168 129.013 100.429 128.107 97.7592 127.021C96.6801 126.615 95.601 126.204 94.5104 125.816C90.4222 124.36 80.7043 126.655 80.6072 126.678C80.5471 126.692 80.484 126.687 80.4274 126.662C80.3708 126.637 80.3237 126.595 80.2932 126.541L67.7318 104.632C67.7093 104.592 67.6975 104.547 67.6975 104.501C67.6975 104.455 67.7093 104.41 67.7318 104.369C67.7507 104.327 67.7799 104.29 67.8169 104.262C67.8538 104.234 67.8972 104.216 67.9431 104.21C68.1144 104.21 85.175 101.606 88.795 100.704C92.4149 99.8015 100.214 95.4563 100.26 95.4106C101.623 94.69 103.033 94.0605 104.48 93.5263C105.772 93.1694 107.086 92.8985 108.414 92.7155C111.11 92.2668 113.875 92.4624 116.481 93.2865C120.113 94.5256 122.985 97.2092 125.765 99.8072L127.016 100.949C131.252 104.901 135.82 108.041 140.673 111.387C141.684 112.078 142.695 112.769 143.705 113.477C145.315 114.619 146.834 115.761 147.662 117.394C147.972 117.844 148.144 118.374 148.158 118.92C148.172 119.466 148.027 120.005 147.74 120.469C147.453 120.934 147.037 121.306 146.542 121.538C146.048 121.771 145.497 121.854 144.956 121.779C143.605 121.722 142.274 121.433 141.022 120.923C140.673 120.803 140.325 120.683 139.977 120.574C139.246 120.346 135.563 119.301 134.764 121.145C134.513 121.716 134.987 122.287 135.535 122.984C136.083 123.68 136.831 124.583 136.574 125.633C136.117 127.495 133.965 127.301 133.257 127.238C133.257 127.238 131.218 126.958 130.071 126.667C130.161 127.055 130.137 127.462 130.002 127.837C129.867 128.228 129.642 128.58 129.344 128.866C129.046 129.152 128.685 129.363 128.289 129.482C127.061 129.79 125.937 129.231 124.955 128.591C124.812 129.217 124.513 129.797 124.086 130.276C123.659 130.756 123.117 131.119 122.511 131.332C121.522 131.729 120.464 131.926 119.399 131.909ZM90.7534 124.783C92.0899 124.74 93.4245 124.915 94.7045 125.302C95.7951 125.69 96.8742 126.101 97.9591 126.513C100.608 127.586 103.324 128.484 106.09 129.202C107.459 129.496 108.842 129.717 110.235 129.864C111.434 130.013 112.673 130.167 113.883 130.435L115.122 130.709C117.583 131.28 119.907 131.789 122.277 130.812C122.862 130.609 123.377 130.245 123.764 129.761C124.15 129.277 124.39 128.693 124.458 128.077C124.464 128.029 124.482 127.983 124.511 127.944C124.54 127.905 124.579 127.874 124.623 127.854C124.666 127.831 124.714 127.819 124.763 127.819C124.812 127.819 124.86 127.831 124.903 127.854C125.908 128.545 126.987 129.196 128.135 128.905C128.441 128.812 128.721 128.648 128.951 128.425C129.182 128.203 129.356 127.929 129.46 127.626C129.543 127.419 129.573 127.194 129.548 126.971C129.524 126.749 129.444 126.537 129.317 126.353C129.273 126.292 129.254 126.216 129.265 126.141C129.276 126.067 129.315 125.999 129.374 125.953C129.423 125.911 129.486 125.888 129.551 125.888C129.616 125.888 129.678 125.911 129.728 125.953C130.907 126.251 132.102 126.48 133.308 126.638C134.952 126.781 135.792 126.421 136.026 125.462C136.214 124.691 135.672 124.017 135.095 123.309C134.518 122.601 133.856 121.785 134.244 120.883C135.215 118.667 139.012 119.655 140.154 120.009L141.216 120.363C142.404 120.861 143.669 121.147 144.956 121.208C145.397 121.242 145.84 121.165 146.244 120.986C146.649 120.807 147.002 120.53 147.274 120.18C147.471 119.779 147.564 119.335 147.543 118.889C147.522 118.442 147.388 118.009 147.154 117.628C146.389 116.092 144.933 115.001 143.386 113.922L140.359 111.832C135.506 108.498 130.921 105.352 126.605 101.389L125.349 100.247C122.614 97.6889 119.787 95.0509 116.276 93.8461C113.753 93.0547 111.079 92.8688 108.471 93.3036C107.177 93.4944 105.897 93.7691 104.639 94.1259C103.242 94.6437 101.881 95.2522 100.563 95.9473C100.494 95.9873 92.6376 100.384 88.9377 101.303C85.609 102.137 71.0891 104.358 68.4456 104.729L80.6872 126.09C83.9914 125.324 87.3632 124.886 90.7534 124.783Z" fill="#FFAB63"/>
<path d="M161.548 105.807L148.102 82.4097C147.575 81.4933 146.405 81.1774 145.489 81.704L98.1245 108.926C97.2082 109.453 96.8923 110.623 97.4189 111.539L110.865 134.937C111.392 135.853 112.562 136.169 113.478 135.642L160.843 108.42C161.759 107.893 162.075 106.724 161.548 105.807Z" fill="white"/>
<path d="M112.348 135.649C111.96 135.651 111.58 135.55 111.245 135.356C110.91 135.162 110.632 134.883 110.441 134.547L97.0684 111.216C96.781 110.71 96.7056 110.11 96.8586 109.549C97.0116 108.987 97.3805 108.509 97.8848 108.218L145.116 81.153C145.622 80.8656 146.221 80.7902 146.783 80.9432C147.344 81.0962 147.823 81.4651 148.113 81.9695L161.48 105.3C161.624 105.55 161.718 105.825 161.756 106.111C161.793 106.397 161.774 106.687 161.698 106.965C161.623 107.244 161.493 107.504 161.316 107.732C161.14 107.96 160.92 108.15 160.669 108.292L113.432 135.369C113.102 135.557 112.728 135.654 112.348 135.649ZM110.932 134.261C111.147 134.635 111.501 134.908 111.917 135.022C112.333 135.135 112.778 135.079 113.153 134.866L160.372 107.801C160.559 107.697 160.724 107.556 160.856 107.388C160.988 107.219 161.086 107.026 161.143 106.819C161.256 106.404 161.201 105.96 160.989 105.586L147.616 82.2664C147.398 81.8977 147.042 81.6306 146.627 81.5236C146.211 81.4166 145.771 81.4784 145.401 81.6954L98.1703 108.76C97.808 108.973 97.5424 109.318 97.4295 109.723C97.3166 110.128 97.3652 110.561 97.5651 110.93L110.932 134.261Z" fill="#FFAB63"/>
<path d="M117.937 130.949C117.888 130.949 117.839 130.935 117.796 130.91C117.753 130.885 117.717 130.849 117.692 130.806L104.029 106.961C103.991 106.896 103.981 106.819 104 106.746C104.019 106.673 104.066 106.611 104.131 106.573L143.037 84.3044C143.069 84.2843 143.105 84.2713 143.143 84.2664C143.18 84.2615 143.218 84.2647 143.254 84.2758C143.326 84.2965 143.387 84.3434 143.426 84.4071L157.089 108.252C157.126 108.319 157.136 108.397 157.115 108.471C157.095 108.545 157.047 108.608 156.98 108.646L118.08 130.915C118.037 130.94 117.987 130.952 117.937 130.949ZM104.662 106.921L118.046 130.275L156.449 108.269L143.072 84.9153L104.662 106.921Z" fill="#E5E7EB"/>
<path d="M108.037 125.302C107.779 125.302 107.527 125.233 107.304 125.104C107.081 124.975 106.897 124.789 106.769 124.565L104.143 119.997C104.047 119.831 103.985 119.648 103.96 119.457C103.936 119.267 103.949 119.073 103.999 118.888C104.05 118.703 104.136 118.53 104.254 118.378C104.372 118.226 104.518 118.1 104.685 118.005L106.284 117.085C106.452 116.991 106.637 116.93 106.829 116.908C107.02 116.885 107.214 116.901 107.4 116.954C107.585 117.007 107.758 117.097 107.909 117.217C108.059 117.338 108.184 117.487 108.277 117.656L110.903 122.224C110.998 122.392 111.058 122.578 111.081 122.769C111.103 122.961 111.088 123.155 111.034 123.34C110.981 123.526 110.892 123.699 110.771 123.849C110.651 124 110.502 124.125 110.332 124.217L108.734 125.136C108.518 125.248 108.279 125.304 108.037 125.302ZM107.009 117.445C106.854 117.444 106.702 117.486 106.569 117.565L104.988 118.484C104.886 118.542 104.797 118.619 104.726 118.711C104.654 118.803 104.602 118.909 104.572 119.021C104.541 119.134 104.534 119.252 104.549 119.367C104.565 119.483 104.603 119.594 104.662 119.695L107.289 124.263C107.346 124.364 107.423 124.453 107.515 124.525C107.608 124.597 107.713 124.649 107.825 124.68C107.938 124.711 108.055 124.719 108.171 124.704C108.287 124.69 108.398 124.652 108.499 124.594L110.104 123.675C110.205 123.618 110.294 123.541 110.365 123.449C110.436 123.357 110.487 123.251 110.515 123.138C110.547 123.026 110.556 122.908 110.541 122.792C110.526 122.677 110.488 122.565 110.429 122.464L107.803 117.896C107.686 117.692 107.493 117.542 107.266 117.479C107.183 117.455 107.096 117.444 107.009 117.445Z" fill="#E5E7EB"/>
<path d="M153.423 97.3463C153.373 97.347 153.323 97.3341 153.278 97.309C153.234 97.2839 153.198 97.2475 153.172 97.2035L149.284 90.4144C149.264 90.3823 149.252 90.3467 149.246 90.3096C149.241 90.2725 149.243 90.2347 149.253 90.1985C149.263 90.1623 149.279 90.1284 149.302 90.0988C149.325 90.0692 149.354 90.0445 149.387 90.0261C149.453 89.9884 149.531 89.978 149.604 89.9972C149.678 90.0164 149.741 90.0637 149.78 90.1289L153.669 96.918C153.688 96.9505 153.7 96.9864 153.705 97.0237C153.71 97.0611 153.707 97.099 153.697 97.1352C153.687 97.1715 153.67 97.2053 153.646 97.2347C153.623 97.2641 153.594 97.2885 153.56 97.3063C153.52 97.3332 153.472 97.3472 153.423 97.3463Z" fill="#E5E7EB"/>
<path d="M154.565 99.1622C154.516 99.1619 154.467 99.1486 154.424 99.1236C154.38 99.0985 154.345 99.0626 154.32 99.0195L153.8 98.1116C153.777 98.0793 153.76 98.0424 153.752 98.0034C153.744 97.9643 153.744 97.9239 153.752 97.8848C153.76 97.8457 153.776 97.8088 153.8 97.7764C153.823 97.7441 153.853 97.717 153.888 97.6969C153.922 97.6768 153.961 97.6642 154 97.6599C154.04 97.6556 154.08 97.6596 154.118 97.6718C154.156 97.684 154.191 97.704 154.221 97.7306C154.251 97.7572 154.275 97.7897 154.291 97.8261L154.817 98.7397C154.852 98.8059 154.861 98.8833 154.84 98.9557C154.82 99.028 154.773 99.0898 154.708 99.128C154.664 99.1507 154.615 99.1625 154.565 99.1622Z" fill="#E5E7EB"/>
<path d="M100.871 95.4274C100.871 95.4274 109.59 89.5004 113.433 92.8921C115.98 95.1761 120.856 109.223 117.636 109.28C114.415 109.337 111.206 100.492 111.206 100.492C111.206 100.492 103.595 107.441 97.2054 105.928" fill="white"/>
<path d="M117.579 109.566C114.581 109.566 111.737 102.714 111.058 101.001C109.533 102.309 102.91 107.596 97.1084 106.231C97.0347 106.212 96.9712 106.165 96.9317 106.1C96.8923 106.035 96.8798 105.957 96.8972 105.883C96.9148 105.81 96.9607 105.746 97.0249 105.707C97.0891 105.667 97.1663 105.655 97.2397 105.672C103.412 107.128 110.909 100.373 110.989 100.304C111.023 100.272 111.065 100.249 111.11 100.237C111.156 100.226 111.203 100.225 111.249 100.237C111.294 100.248 111.336 100.271 111.371 100.302C111.405 100.334 111.431 100.374 111.446 100.419C112.325 102.822 115.146 109.063 117.607 109.018C117.784 109.018 118.047 108.955 118.218 108.492C119.212 105.82 115.397 95.0741 113.216 93.1327C109.607 89.9237 101.117 95.628 101.031 95.6908C100.968 95.7321 100.891 95.7469 100.818 95.7319C100.744 95.7169 100.679 95.6734 100.637 95.6108C100.616 95.5803 100.601 95.5457 100.593 95.5092C100.585 95.4726 100.584 95.4349 100.591 95.3982C100.598 95.3615 100.612 95.3265 100.633 95.2954C100.654 95.2642 100.68 95.2375 100.711 95.2169C101.077 94.9713 109.659 89.2043 113.593 92.7045C114.843 93.8122 116.448 97.3238 117.447 100.31C117.944 101.766 119.503 106.671 118.755 108.687C118.689 108.941 118.542 109.167 118.335 109.33C118.129 109.492 117.875 109.583 117.613 109.589L117.579 109.566Z" fill="#FFAB63"/>
<path d="M89.326 98.8765L84.1872 129.288L55.1248 131.629C56.8862 119.821 61.4716 108.613 68.4912 98.9564L89.326 98.8765Z" fill="#FFAB63"/>
<path d="M190.822 175.218C190.822 175.218 173.807 171.61 170.193 170.479C166.579 169.348 159.116 164.563 158.99 164.489C157.694 163.703 156.348 163.003 154.959 162.394C153.712 161.96 152.438 161.607 151.145 161.337C148.523 160.739 145.796 160.766 143.186 161.417C139.001 162.559 135.689 165.671 132.337 168.406C126.85 172.877 120.884 176.223 114.871 179.9C113.313 180.854 111.708 181.893 110.795 183.475C110.473 183.861 110.274 184.335 110.223 184.835C110.172 185.335 110.27 185.839 110.507 186.283C110.744 186.726 111.107 187.089 111.551 187.326C111.994 187.562 112.498 187.66 112.999 187.609C114.683 187.729 116.316 187.112 117.955 186.707C119.416 186.347 122.756 185.833 123.459 187.752C124.03 189.276 121.061 190.338 121.398 192.165C121.58 193.13 122.597 193.747 123.579 193.821C124.554 193.811 125.52 193.631 126.434 193.29C128.981 192.643 131.589 192.26 134.216 192.148C136.859 191.965 135.084 191.577 137.071 193.016C139.457 194.729 142.175 197.013 145.064 197.915C149.632 199.326 158.722 195.905 163.027 194.655C167.332 193.404 177.016 196.368 177.016 196.368L190.822 175.218Z" fill="white"/>
<path d="M147.634 198.532C146.727 198.55 145.823 198.434 144.95 198.189C142.472 197.43 140.108 195.654 138.019 194.084L136.877 193.244C136.477 192.973 136.114 192.651 135.797 192.285L135.763 192.245H135.62C135.162 192.33 134.699 192.385 134.233 192.411C131.625 192.518 129.034 192.891 126.502 193.524L126.142 193.633C125.303 193.931 124.418 194.078 123.527 194.067C122.477 193.987 121.3 193.313 121.089 192.177C120.878 191.04 121.66 190.31 122.288 189.596C122.916 188.882 123.384 188.402 123.168 187.809C122.477 185.936 118.737 186.758 117.995 186.946C117.641 187.032 117.287 187.129 116.927 187.226C115.64 187.663 114.288 187.875 112.93 187.854C112.381 187.902 111.829 187.787 111.344 187.524C110.859 187.262 110.462 186.862 110.203 186.375C109.943 185.889 109.832 185.337 109.883 184.787C109.935 184.238 110.146 183.716 110.492 183.286C111.417 181.688 112.999 180.631 114.671 179.609C115.722 178.964 116.773 178.336 117.823 177.702C122.848 174.676 127.593 171.815 132.098 168.144L133.416 167.053C136.34 164.632 139.372 162.12 143.066 161.098C145.718 160.431 148.491 160.401 151.157 161.012C152.461 161.284 153.746 161.639 155.005 162.074C156.417 162.695 157.786 163.409 159.104 164.209C159.173 164.255 166.676 169.063 170.233 170.176C173.79 171.29 190.668 174.876 190.839 174.91C190.884 174.921 190.926 174.942 190.961 174.972C190.997 175.002 191.025 175.039 191.045 175.081C191.061 175.125 191.068 175.172 191.063 175.219C191.058 175.265 191.042 175.31 191.016 175.35L177.181 196.476C177.148 196.528 177.099 196.568 177.041 196.589C176.984 196.611 176.921 196.613 176.862 196.596C176.765 196.562 167.201 193.696 163.033 194.883C162.325 195.089 161.491 195.351 160.572 195.643C156.872 196.87 151.602 198.532 147.634 198.532ZM135.826 191.68C135.986 191.68 136.089 191.737 136.243 191.92C136.529 192.252 136.86 192.544 137.225 192.788L138.367 193.633C140.417 195.174 142.746 196.916 145.127 197.63C148.878 198.772 155.844 196.579 160.452 195.129C161.377 194.832 162.216 194.558 162.924 194.364C166.961 193.222 175.411 195.563 176.873 195.991L190.365 175.395C187.75 174.824 173.384 171.758 170.113 170.73C166.476 169.588 158.893 164.735 158.83 164.689C157.555 163.918 156.232 163.229 154.868 162.628C153.634 162.198 152.373 161.849 151.094 161.583C148.517 160.994 145.837 161.02 143.271 161.657C139.691 162.651 136.711 165.117 133.828 167.504C133.388 167.875 132.948 168.235 132.509 168.595C127.941 172.295 123.196 175.167 118.154 178.204C117.11 178.833 116.059 179.466 115.014 180.106C113.404 181.094 111.885 182.099 111.017 183.583C110.709 183.926 110.513 184.354 110.456 184.811C110.399 185.268 110.482 185.732 110.696 186.139C110.91 186.547 111.244 186.88 111.652 187.093C112.061 187.305 112.525 187.388 112.981 187.329C114.268 187.342 115.548 187.137 116.767 186.724C117.127 186.627 117.486 186.524 117.846 186.438C118.988 186.147 122.853 185.388 123.687 187.66C124.03 188.579 123.35 189.316 122.699 190.03C122.048 190.743 121.495 191.337 121.643 192.12C121.791 192.902 122.722 193.479 123.556 193.541C124.379 193.545 125.196 193.405 125.971 193.13L126.336 193.022C128.906 192.375 131.534 191.992 134.182 191.88C134.628 191.853 135.072 191.802 135.512 191.726C135.613 191.698 135.716 191.681 135.82 191.674L135.826 191.68Z" fill="#FFAB63"/>
<path d="M146.429 202.527L161.162 180.028C161.739 179.147 161.492 177.965 160.611 177.388L115.066 147.56C114.185 146.983 113.003 147.23 112.426 148.111L97.6929 170.609C97.1159 171.491 97.3624 172.673 98.2435 173.25L143.788 203.077C144.669 203.654 145.852 203.408 146.429 202.527Z" fill="white"/>
<path d="M144.819 203.665C144.392 203.666 143.975 203.54 143.62 203.305L98.0847 173.477C97.8434 173.319 97.6357 173.115 97.4732 172.877C97.3108 172.639 97.1969 172.371 97.138 172.089C97.0792 171.807 97.0765 171.516 97.1302 171.233C97.1839 170.95 97.2928 170.68 97.4509 170.439L112.182 147.93C112.34 147.689 112.543 147.481 112.781 147.319C113.019 147.156 113.287 147.043 113.569 146.984C113.851 146.925 114.142 146.922 114.426 146.976C114.709 147.03 114.979 147.139 115.22 147.297L160.76 177.125C161.001 177.283 161.209 177.487 161.372 177.725C161.534 177.963 161.648 178.231 161.707 178.513C161.766 178.795 161.768 179.086 161.715 179.369C161.661 179.652 161.552 179.922 161.394 180.163L146.669 202.672C146.35 203.159 145.851 203.5 145.281 203.619C145.129 203.652 144.974 203.667 144.819 203.665ZM114.02 147.525C113.907 147.525 113.794 147.537 113.684 147.559C113.474 147.602 113.276 147.687 113.099 147.807C112.923 147.928 112.772 148.082 112.656 148.262L97.9248 170.77C97.6907 171.131 97.6086 171.57 97.6963 171.991C97.7839 172.413 98.0343 172.782 98.393 173.02L143.934 202.849C144.295 203.083 144.734 203.165 145.155 203.077C145.576 202.989 145.946 202.739 146.183 202.38L160.914 179.883C161.032 179.705 161.113 179.505 161.153 179.295C161.193 179.086 161.191 178.87 161.148 178.661C161.104 178.452 161.02 178.254 160.899 178.077C160.779 177.901 160.625 177.75 160.446 177.633L114.905 147.805C114.644 147.628 114.336 147.531 114.02 147.525Z" fill="#FFAB63"/>
<path d="M139.406 198.64C139.35 198.64 139.296 198.622 139.252 198.589L101.745 174.036C101.713 174.016 101.685 173.99 101.663 173.96C101.641 173.929 101.626 173.894 101.618 173.857C101.61 173.821 101.609 173.783 101.617 173.746C101.624 173.709 101.638 173.673 101.659 173.642L116.715 150.648C116.736 150.617 116.763 150.59 116.794 150.569C116.826 150.548 116.861 150.534 116.898 150.528C116.934 150.52 116.972 150.52 117.008 150.527C117.044 150.534 117.079 150.548 117.109 150.568L154.617 175.121C154.68 175.162 154.725 175.226 154.741 175.3C154.757 175.374 154.743 175.451 154.702 175.515L139.646 198.509C139.62 198.549 139.584 198.582 139.542 198.604C139.5 198.627 139.454 198.64 139.406 198.64ZM102.293 173.705L139.32 197.955L154.091 175.447L117.035 151.191L102.293 173.705Z" fill="#E5E7EB"/>
<path d="M149.695 193.61C149.412 193.61 149.134 193.529 148.896 193.376L147.354 192.366C147.031 192.152 146.806 191.82 146.727 191.442C146.648 191.063 146.721 190.669 146.931 190.344L149.826 185.919C150.039 185.595 150.371 185.369 150.75 185.29C151.129 185.211 151.523 185.285 151.848 185.496L153.389 186.507C153.551 186.612 153.69 186.747 153.799 186.906C153.908 187.065 153.984 187.244 154.023 187.432C154.063 187.62 154.065 187.813 154.029 188.002C153.992 188.19 153.919 188.369 153.812 188.528L150.917 192.954C150.812 193.114 150.676 193.253 150.517 193.36C150.359 193.468 150.18 193.543 149.992 193.582C149.894 193.603 149.795 193.612 149.695 193.61ZM151.048 185.833H150.866C150.749 185.855 150.639 185.9 150.541 185.966C150.443 186.032 150.359 186.117 150.295 186.216L147.4 190.635C147.272 190.833 147.227 191.074 147.275 191.305C147.323 191.536 147.46 191.738 147.657 191.869L149.198 192.879C149.295 192.945 149.405 192.989 149.519 193.011C149.634 193.032 149.752 193.03 149.866 193.005C149.983 192.985 150.094 192.94 150.192 192.874C150.291 192.809 150.374 192.723 150.437 192.622L153.338 188.203C153.466 188.005 153.511 187.764 153.463 187.534C153.415 187.303 153.277 187.1 153.081 186.97L151.534 185.959C151.39 185.862 151.221 185.81 151.048 185.81V185.833Z" fill="#E5E7EB"/>
<path d="M105.987 162.982C105.93 162.984 105.874 162.968 105.827 162.937C105.765 162.895 105.721 162.83 105.706 162.756C105.691 162.682 105.706 162.606 105.747 162.543L110.035 155.993C110.054 155.958 110.08 155.928 110.111 155.903C110.143 155.879 110.179 155.861 110.217 155.851C110.256 155.842 110.296 155.84 110.335 155.847C110.374 155.854 110.411 155.868 110.445 155.89C110.478 155.912 110.506 155.941 110.527 155.974C110.549 156.008 110.563 156.045 110.569 156.085C110.575 156.124 110.573 156.164 110.563 156.202C110.552 156.241 110.534 156.276 110.509 156.307L106.221 162.857C106.196 162.895 106.161 162.927 106.12 162.949C106.079 162.971 106.033 162.982 105.987 162.982Z" fill="#E5E7EB"/>
<path d="M104.731 164.729C104.676 164.728 104.623 164.712 104.577 164.683C104.513 164.642 104.468 164.578 104.452 164.504C104.436 164.43 104.45 164.353 104.491 164.289L105.062 163.41C105.103 163.347 105.167 163.302 105.241 163.286C105.315 163.27 105.392 163.284 105.456 163.324C105.52 163.366 105.565 163.432 105.581 163.507C105.597 163.582 105.583 163.66 105.542 163.724L104.971 164.598C104.946 164.639 104.91 164.672 104.868 164.695C104.826 164.718 104.779 164.73 104.731 164.729Z" fill="#E5E7EB"/>
<path d="M124.572 186.518C125.053 186.702 125.482 187 125.822 187.386C126.163 187.772 126.404 188.235 126.527 188.736C126.649 189.236 126.648 189.758 126.525 190.258C126.401 190.757 126.158 191.22 125.817 191.605C125.421 192.045 124.923 192.381 124.367 192.582C123.864 192.772 123.326 192.851 122.79 192.814C122.254 192.777 121.732 192.623 121.261 192.365C120.535 191.898 120.009 191.18 119.782 190.348C119.555 189.516 119.645 188.629 120.033 187.859C120.752 186.409 123.168 185.975 124.572 186.518Z" fill="white"/>
<path d="M123.019 193.107C122.383 193.119 121.756 192.963 121.199 192.656C120.643 192.348 120.177 191.9 119.848 191.356C119.52 190.811 119.34 190.19 119.328 189.555C119.315 188.919 119.469 188.291 119.776 187.734C120.552 186.164 123.088 185.639 124.675 186.25C125.198 186.451 125.665 186.776 126.036 187.197C126.406 187.618 126.669 188.122 126.803 188.667C126.936 189.211 126.936 189.78 126.802 190.325C126.668 190.869 126.405 191.373 126.034 191.794C125.605 192.269 125.066 192.632 124.464 192.85C124.001 193.02 123.512 193.107 123.019 193.107ZM123.253 186.575C122.06 186.575 120.741 187.072 120.29 187.985C119.937 188.691 119.855 189.501 120.059 190.263C120.264 191.024 120.74 191.685 121.398 192.119C121.831 192.356 122.311 192.495 122.804 192.529C123.297 192.562 123.791 192.489 124.252 192.314C124.766 192.129 125.227 191.821 125.594 191.417C125.905 191.065 126.125 190.643 126.237 190.188C126.349 189.732 126.348 189.256 126.236 188.8C126.124 188.345 125.903 187.923 125.592 187.571C125.282 187.22 124.891 186.948 124.452 186.781C124.07 186.642 123.666 186.572 123.259 186.575H123.253Z" fill="#FFAB63"/>
<path d="M132.28 190.829C132.643 190.818 133.003 190.888 133.334 191.036C133.666 191.183 133.959 191.403 134.193 191.68C134.442 192.046 134.602 192.464 134.661 192.902C134.802 193.493 134.807 194.108 134.677 194.701C134.546 195.295 134.283 195.851 133.908 196.328C133.383 196.857 132.744 197.259 132.041 197.504C130.859 197.99 129.534 198.332 128.312 197.955C126.548 197.384 125.074 194.895 126.439 193.29C127.553 191.96 130.596 190.818 132.28 190.829Z" fill="white"/>
<path d="M129.425 198.383C129.019 198.387 128.614 198.327 128.226 198.206C127.636 197.996 127.104 197.649 126.673 197.195C126.241 196.741 125.923 196.191 125.743 195.591C125.603 195.168 125.573 194.717 125.656 194.28C125.739 193.842 125.932 193.433 126.216 193.09C127.358 191.714 130.51 190.544 132.258 190.544C132.664 190.531 133.069 190.612 133.44 190.779C133.811 190.946 134.139 191.196 134.399 191.509C134.675 191.91 134.855 192.369 134.924 192.851C135.072 193.482 135.074 194.138 134.931 194.77C134.787 195.403 134.502 195.994 134.096 196.499C133.543 197.062 132.869 197.491 132.126 197.755C131.275 198.136 130.358 198.349 129.425 198.383ZM132.28 191.115C130.682 191.115 127.712 192.211 126.679 193.462C126.454 193.732 126.302 194.056 126.238 194.402C126.174 194.748 126.2 195.104 126.314 195.437C126.468 195.946 126.738 196.413 127.104 196.799C127.47 197.186 127.92 197.482 128.42 197.664C129.374 197.961 130.499 197.824 131.955 197.224C132.618 196.994 133.221 196.617 133.719 196.122C134.064 195.679 134.305 195.165 134.423 194.616C134.542 194.067 134.535 193.499 134.404 192.953C134.356 192.558 134.213 192.18 133.988 191.851C133.781 191.61 133.521 191.418 133.23 191.29C132.938 191.163 132.621 191.103 132.303 191.115H132.28Z" fill="#FFAB63"/>
<path d="M136.483 194.849C136.939 194.662 137.43 194.579 137.922 194.603C138.469 194.67 138.986 194.891 139.414 195.24C139.841 195.588 140.161 196.051 140.337 196.573C140.501 197.099 140.558 197.652 140.505 198.2C140.452 198.749 140.29 199.281 140.029 199.765C139.739 200.35 139.33 200.867 138.827 201.283C138.324 201.7 137.739 202.005 137.111 202.18C136.479 202.342 135.817 202.337 135.188 202.165C134.559 201.993 133.986 201.659 133.525 201.198C131.161 198.697 134.073 195.762 136.483 194.849Z" fill="white"/>
<path d="M136.174 202.58C135.643 202.586 135.117 202.485 134.626 202.281C134.135 202.078 133.691 201.778 133.319 201.398C132.937 201.033 132.656 200.575 132.502 200.068C132.349 199.562 132.33 199.025 132.446 198.509C132.845 196.756 134.73 195.208 136.38 194.58C136.876 194.38 137.41 194.291 137.944 194.318C138.548 194.387 139.119 194.628 139.591 195.011C140.062 195.395 140.414 195.905 140.605 196.482C140.785 197.045 140.849 197.639 140.793 198.228C140.737 198.817 140.562 199.388 140.28 199.908C139.974 200.528 139.54 201.077 139.006 201.518C138.473 201.959 137.852 202.282 137.185 202.466C136.854 202.546 136.515 202.584 136.174 202.58ZM136.585 195.117C135.072 195.688 133.359 197.081 133 198.634C132.906 199.059 132.923 199.5 133.052 199.916C133.18 200.331 133.414 200.706 133.731 201.004C134.158 201.427 134.688 201.732 135.268 201.889C135.849 202.046 136.46 202.05 137.042 201.9C137.633 201.734 138.181 201.445 138.652 201.051C139.122 200.657 139.504 200.168 139.772 199.616C140.017 199.166 140.17 198.672 140.221 198.162C140.272 197.652 140.22 197.137 140.069 196.647C139.911 196.176 139.624 195.759 139.24 195.444C138.856 195.129 138.391 194.928 137.899 194.866C137.45 194.845 137.001 194.923 136.585 195.094V195.117Z" fill="#FFAB63"/>
<path d="M158.539 164.193C158.539 164.193 156.107 162.52 151.145 161.338C146.623 160.247 132.703 160.161 132.6 163.507C132.497 166.853 147.948 168.646 147.948 168.646C147.948 168.646 155.136 176.035 161.605 174.927" fill="white"/>
<path d="M160.201 175.298C154.382 175.298 148.564 169.657 147.816 168.903C145.801 168.663 132.212 166.921 132.314 163.478C132.334 163.209 132.416 162.947 132.554 162.714C132.692 162.482 132.881 162.284 133.108 162.137C136.026 159.904 147.04 160.035 151.214 161.04C156.17 162.239 158.596 163.895 158.699 163.958C158.73 163.979 158.757 164.006 158.778 164.038C158.799 164.07 158.813 164.105 158.82 164.142C158.827 164.179 158.826 164.218 158.818 164.255C158.81 164.292 158.795 164.327 158.773 164.358C158.729 164.42 158.663 164.462 158.588 164.476C158.514 164.49 158.437 164.474 158.374 164.432C158.374 164.432 155.918 162.77 151.077 161.577C147.08 160.612 136.203 160.464 133.451 162.565C133.292 162.662 133.159 162.795 133.06 162.952C132.961 163.11 132.899 163.288 132.88 163.473C132.817 165.722 142.107 167.641 147.976 168.326C148.041 168.335 148.102 168.365 148.147 168.412C148.216 168.486 155.307 175.675 161.548 174.59C161.585 174.583 161.624 174.583 161.661 174.591C161.698 174.599 161.733 174.614 161.764 174.636C161.795 174.658 161.821 174.686 161.841 174.718C161.861 174.75 161.874 174.786 161.879 174.824C161.886 174.861 161.885 174.899 161.877 174.936C161.869 174.973 161.853 175.008 161.831 175.038C161.81 175.069 161.782 175.095 161.75 175.115C161.718 175.135 161.682 175.149 161.645 175.155C161.168 175.242 160.685 175.29 160.201 175.298Z" fill="#FFAB63"/>
<path d="M198.793 169.508C194.733 180.093 188.319 189.615 180.036 197.356C179.374 197.972 178.706 198.578 178.021 199.166L166.853 197.173L173.442 169.36L198.793 169.508Z" fill="#FFAB63"/>
<path d="M118.691 163.027L120.358 164.946C121.426 166.271 124.801 165.334 127.901 162.856C131.002 160.378 132.652 157.283 131.584 155.953L129.917 154.04L118.691 163.027Z" fill="#FFB9AA"/>
<path d="M121.917 165.837C121.584 165.864 121.248 165.813 120.937 165.689C120.627 165.565 120.348 165.372 120.124 165.123L118.463 163.216C118.437 163.187 118.418 163.153 118.407 163.116C118.395 163.079 118.391 163.04 118.395 163.002C118.398 162.964 118.41 162.926 118.428 162.892C118.447 162.859 118.472 162.829 118.503 162.805L129.728 153.818C129.786 153.771 129.859 153.749 129.932 153.755C130.006 153.762 130.074 153.796 130.122 153.852L131.79 155.765C132.389 156.513 132.298 157.695 131.544 159.105C129.704 162.179 126.827 164.493 123.43 165.631C122.937 165.767 122.428 165.837 121.917 165.837ZM119.062 163.068L120.535 164.781C120.975 165.352 121.963 165.432 123.248 165.078C126.488 163.985 129.239 161.783 131.013 158.859C131.641 157.683 131.755 156.695 131.321 156.159L129.843 154.446L119.062 163.068Z" fill="#FFAB63"/>
<path d="M126.218 160.943C129.316 158.461 130.966 155.372 129.901 154.043C128.837 152.713 125.462 153.648 122.363 156.13C119.264 158.612 117.615 161.701 118.679 163.03C119.744 164.359 123.119 163.425 126.218 160.943Z" fill="#FFB9AA"/>
<path d="M120.25 163.919C119.917 163.945 119.582 163.895 119.271 163.772C118.961 163.65 118.682 163.457 118.457 163.211C117.886 162.474 117.955 161.292 118.708 159.882C120.553 156.819 123.43 154.515 126.822 153.384C128.364 152.956 129.54 153.127 130.128 153.863C130.699 154.6 130.631 155.782 129.877 157.192C128.028 160.252 125.152 162.554 121.763 163.69C121.271 163.834 120.762 163.911 120.25 163.919ZM128.335 153.721C127.875 153.731 127.418 153.803 126.976 153.932C123.736 155.022 120.987 157.225 119.216 160.15C118.583 161.326 118.468 162.314 118.902 162.851C119.336 163.388 120.324 163.496 121.609 163.142C124.846 162.046 127.594 159.845 129.369 156.924C130.002 155.742 130.117 154.76 129.683 154.217C129.509 154.039 129.298 153.903 129.065 153.817C128.832 153.731 128.583 153.698 128.335 153.721Z" fill="#FFAB63"/>
<path d="M128.072 155.079L127.324 155.781C127.279 155.827 127.279 155.839 127.324 155.85C127.466 155.861 127.603 155.906 127.723 155.983C127.842 156.06 127.941 156.165 128.01 156.29C128.118 156.547 128.01 156.861 127.65 157.277C127.564 157.38 127.456 157.489 127.359 157.603L126.057 157.523C126.197 157.404 126.297 157.245 126.342 157.066C126.334 156.976 126.312 156.888 126.28 156.803H126.24L124.852 158.111L124.943 158.151C125.182 158.229 125.404 158.353 125.594 158.516C125.874 158.779 125.777 159.173 125.315 159.658C124.869 160.143 124.328 160.532 123.727 160.8C123.283 161.01 122.806 161.14 122.317 161.183C122.06 161.183 121.832 161.183 121.58 161.183L121.072 161.668L120.273 161.411L120.775 160.937C120.667 160.859 120.566 160.771 120.473 160.675C120.387 160.576 120.334 160.454 120.321 160.324C120.307 160.194 120.335 160.063 120.398 159.95C120.548 159.641 120.757 159.365 121.015 159.139L121.854 159.282C121.529 159.636 121.426 159.915 121.666 160.087L123.031 158.785L122.659 158.556C122.59 158.519 122.533 158.462 122.493 158.394C122.454 158.325 122.434 158.247 122.437 158.168C122.481 157.939 122.593 157.729 122.757 157.563C123.016 157.257 123.315 156.988 123.647 156.764C124.178 156.387 124.771 156.108 125.4 155.941C125.64 155.878 125.863 155.85 126.097 155.804H126.177L126.908 155.113L128.072 155.079ZM122.522 160.321C122.732 160.328 122.942 160.295 123.139 160.224C123.544 160.092 123.973 159.744 124.007 159.51C124.041 159.276 123.881 159.253 123.761 159.15L122.522 160.321ZM125.252 156.695C125.046 156.758 124.869 156.798 124.681 156.866C124.241 157.026 123.819 157.403 123.847 157.603C123.847 157.711 123.973 157.757 124.076 157.814L125.252 156.695Z" fill="white"/>
<path d="M133.736 103.673C131.304 102.416 126.211 104.329 126.211 104.329L124.829 106.516C124.419 107.289 124.167 108.135 124.087 109.006C124.007 109.876 124.1 110.754 124.361 111.589C124.623 112.423 125.047 113.198 125.61 113.867C126.172 114.536 126.862 115.088 127.639 115.489C128.416 115.889 129.265 116.132 130.137 116.203C131.008 116.274 131.885 116.171 132.717 115.9C133.548 115.63 134.318 115.197 134.981 114.627C135.644 114.057 136.188 113.361 136.58 112.58L137.562 110.188C137.562 110.188 136.175 104.929 133.736 103.673Z" fill="#FFB9AA"/>
<path d="M130.682 116.451C129.583 116.448 128.501 116.184 127.524 115.68C125.898 114.841 124.672 113.39 124.116 111.647C123.559 109.904 123.717 108.011 124.555 106.385L125.948 104.175C125.983 104.124 126.033 104.084 126.091 104.061C126.302 103.981 131.333 102.119 133.851 103.416C136.369 104.717 137.768 109.896 137.848 110.113C137.865 110.173 137.865 110.236 137.848 110.296L136.866 112.688C136.283 113.825 135.396 114.779 134.305 115.443C133.213 116.107 131.959 116.456 130.682 116.451ZM126.399 104.563L125.069 106.67C124.303 108.163 124.161 109.9 124.675 111.497C125.189 113.095 126.316 114.423 127.81 115.189C129.303 115.956 131.039 116.097 132.637 115.583C134.235 115.069 135.563 113.942 136.329 112.449L137.265 110.165C137.065 109.468 135.729 105.026 133.605 103.918C131.481 102.81 127.079 104.323 126.399 104.563Z" fill="#FFAB63"/>
<path d="M131.475 114.67C135.127 114.67 138.087 111.71 138.087 108.058C138.087 104.407 135.127 101.446 131.475 101.446C127.824 101.446 124.863 104.407 124.863 108.058C124.863 111.71 127.824 114.67 131.475 114.67Z" fill="#FFB9AA"/>
<path d="M131.47 114.955C129.733 114.953 128.06 114.296 126.787 113.115C125.513 111.934 124.732 110.316 124.6 108.584C124.467 106.852 124.993 105.133 126.072 103.772C127.152 102.411 128.705 101.507 130.421 101.241C132.138 100.976 133.892 101.367 135.332 102.338C136.773 103.309 137.794 104.787 138.192 106.478C138.589 108.169 138.334 109.948 137.478 111.459C136.621 112.97 135.226 114.103 133.571 114.63C132.891 114.845 132.183 114.954 131.47 114.955ZM131.47 101.725C130.308 101.727 129.168 102.047 128.175 102.651C127.183 103.255 126.375 104.12 125.84 105.151C125.209 106.376 124.995 107.774 125.232 109.132C125.468 110.489 126.142 111.732 127.15 112.672C128.159 113.611 129.446 114.195 130.817 114.335C132.188 114.474 133.567 114.162 134.745 113.446C135.922 112.73 136.833 111.648 137.338 110.366C137.844 109.085 137.917 107.673 137.546 106.345C137.176 105.018 136.381 103.849 135.284 103.015C134.187 102.181 132.848 101.728 131.47 101.725Z" fill="#FFAB63"/>
<path d="M134.256 104.158L133.816 105.015C133.808 105.022 133.801 105.032 133.796 105.042C133.792 105.052 133.789 105.064 133.789 105.075C133.789 105.086 133.792 105.097 133.796 105.108C133.801 105.118 133.808 105.127 133.816 105.135C134.197 105.437 134.496 105.829 134.684 106.277C134.884 106.74 134.907 107.26 134.747 107.739C134.707 107.87 134.656 107.996 134.604 108.133L133.28 107.453C133.381 107.252 133.411 107.023 133.365 106.802C133.313 106.634 133.248 106.47 133.171 106.311H133.137L132.309 107.961L132.435 108.07C132.756 108.325 133.047 108.616 133.303 108.938C133.493 109.175 133.616 109.459 133.66 109.76C133.705 110.061 133.668 110.369 133.554 110.651C133.387 111.145 133.051 111.565 132.605 111.836C132.159 112.107 131.631 112.211 131.116 112.13C130.824 112.09 130.545 112.015 130.242 111.953L129.911 112.592L128.695 111.958L129.037 111.302C128.826 111.107 128.615 110.936 128.426 110.731C128.055 110.363 127.822 109.879 127.764 109.36C127.725 108.913 127.818 108.464 128.032 108.07L129.334 108.738C129.223 108.968 129.193 109.229 129.248 109.478C129.303 109.728 129.44 109.951 129.637 110.114C129.937 109.52 130.24 108.932 130.545 108.35C130.339 108.15 130.122 107.956 129.917 107.75C129.659 107.516 129.463 107.222 129.346 106.894C129.239 106.557 129.239 106.196 129.346 105.86C129.463 105.442 129.694 105.064 130.014 104.769C130.24 104.554 130.51 104.392 130.806 104.293C131.102 104.194 131.417 104.162 131.727 104.198C131.977 104.241 132.225 104.299 132.469 104.37H132.56L133.017 103.479L134.256 104.158ZM130.83 110.765C131.044 110.841 131.276 110.857 131.498 110.811C131.683 110.759 131.843 110.641 131.947 110.481C132.052 110.32 132.096 110.127 132.069 109.937C131.975 109.67 131.812 109.434 131.595 109.252L130.83 110.765ZM131.972 105.546C131.782 105.533 131.591 105.533 131.401 105.546C131.297 105.563 131.198 105.602 131.111 105.661C131.024 105.72 130.95 105.797 130.896 105.888C130.842 105.978 130.808 106.079 130.796 106.183C130.785 106.288 130.796 106.394 130.83 106.494C130.929 106.697 131.071 106.877 131.247 107.019L131.972 105.546Z" fill="white"/>
<path d="M125.343 118.81L124.098 121.02C123.202 122.47 125.206 125.337 128.586 127.432C131.966 129.528 135.438 130.047 136.317 128.574L137.568 126.364L125.343 118.81Z" fill="#FFB9AA"/>
<path d="M134.313 129.659C133.986 129.656 133.66 129.63 133.337 129.579C129.836 128.859 126.706 126.918 124.504 124.103C123.584 122.79 123.362 121.631 123.853 120.826L125.092 118.622C125.132 118.557 125.195 118.51 125.269 118.491C125.304 118.475 125.342 118.467 125.38 118.467C125.418 118.467 125.456 118.475 125.491 118.491L137.716 126.068C137.779 126.107 137.824 126.168 137.842 126.239C137.86 126.311 137.85 126.386 137.814 126.45L136.569 128.666C136.175 129.351 135.393 129.659 134.313 129.659ZM125.446 119.164L124.344 121.117C123.973 121.688 124.207 122.682 124.972 123.772C127.083 126.461 130.076 128.318 133.423 129.014C134.747 129.214 135.707 129.014 136.078 128.403L137.185 126.439L125.446 119.164Z" fill="#FFAB63"/>
<path d="M137.932 126.591C138.835 125.144 136.831 122.265 133.456 120.16C130.081 118.056 126.614 117.524 125.712 118.971C124.809 120.418 126.813 123.298 130.188 125.402C133.563 127.506 137.03 128.039 137.932 126.591Z" fill="#FFB9AA"/>
<path d="M135.552 127.467C133.965 127.467 131.824 126.764 129.683 125.44C126.12 123.23 124.104 120.243 125.115 118.639C126.125 117.034 129.683 117.497 133.246 119.712C136.809 121.928 138.818 124.908 137.814 126.513C137.414 127.152 136.603 127.467 135.552 127.467ZM127.33 118.239C126.496 118.239 125.874 118.462 125.583 118.924C124.789 120.215 126.799 122.967 129.979 124.943C133.16 126.918 136.523 127.489 137.322 126.205C138.122 124.92 136.106 122.162 132.926 120.186C130.899 118.942 128.792 118.239 127.33 118.239Z" fill="#FFAB63"/>
<path d="M135.975 124.983L135.061 124.514C135.004 124.514 134.993 124.514 134.998 124.514C135.037 124.652 135.04 124.797 135.007 124.936C134.974 125.075 134.906 125.203 134.81 125.308C134.604 125.491 134.239 125.485 133.759 125.308C133.628 125.262 133.497 125.2 133.354 125.143L132.994 123.886C133.155 123.98 133.34 124.022 133.525 124.006C133.606 123.967 133.681 123.917 133.748 123.858H133.719L132.006 122.984C132.004 123.018 132.004 123.053 132.006 123.087C132.01 123.336 131.968 123.584 131.881 123.818C131.721 124.172 131.31 124.206 130.693 123.943C130.089 123.676 129.547 123.287 129.1 122.801C128.752 122.454 128.469 122.045 128.266 121.597C128.164 121.363 128.095 121.14 128.009 120.911L127.387 120.592L127.359 119.752L127.969 120.066C128.01 119.939 128.06 119.815 128.118 119.695C128.182 119.581 128.28 119.489 128.399 119.433C128.518 119.377 128.651 119.359 128.78 119.381C129.121 119.421 129.45 119.525 129.751 119.69L129.894 120.529C129.454 120.346 129.157 120.34 129.072 120.62L130.784 121.477C130.813 121.328 130.836 121.186 130.876 121.049C130.886 120.971 130.918 120.898 130.969 120.838C131.019 120.778 131.086 120.734 131.161 120.712C131.39 120.673 131.625 120.705 131.835 120.803C132.209 120.949 132.564 121.141 132.891 121.374C133.423 121.748 133.883 122.214 134.25 122.75C134.387 122.956 134.49 123.155 134.61 123.361L134.65 123.435L135.547 123.892L135.975 124.983ZM129.18 121.505C129.239 121.714 129.34 121.908 129.477 122.076C129.59 122.233 129.734 122.364 129.9 122.462C130.066 122.561 130.25 122.624 130.442 122.647C130.625 122.613 130.642 122.436 130.693 122.293L129.18 121.505ZM133.508 122.87C133.383 122.693 133.285 122.539 133.16 122.385C132.857 122.025 132.36 121.751 132.183 121.814C132.006 121.876 132.081 121.985 132.058 122.105L133.508 122.87Z" fill="white"/>
<path d="M119.862 129.795C117.287 130.726 115.22 135.757 115.22 135.757L115.876 138.257C116.152 139.099 116.594 139.876 117.175 140.543C117.756 141.211 118.466 141.755 119.261 142.143C120.057 142.532 120.922 142.757 121.806 142.805C122.69 142.853 123.574 142.723 124.407 142.423C125.24 142.123 126.004 141.659 126.654 141.059C127.305 140.458 127.828 139.733 128.193 138.927C128.558 138.121 128.758 137.249 128.781 136.364C128.803 135.479 128.648 134.599 128.324 133.775L127.256 131.428C127.256 131.428 122.437 128.87 119.862 129.795Z" fill="#FFB9AA"/>
<path d="M122.117 142.923C120.698 142.918 119.315 142.477 118.155 141.66C116.995 140.843 116.114 139.689 115.631 138.355L114.963 135.832C114.946 135.772 114.946 135.709 114.963 135.649C115.048 135.443 117.11 130.51 119.776 129.528C122.443 128.568 127.199 131.069 127.388 131.178C127.442 131.208 127.485 131.254 127.513 131.309L128.592 133.656C128.972 134.698 129.095 135.816 128.951 136.916C128.807 138.016 128.4 139.065 127.765 139.974C127.13 140.883 126.285 141.626 125.302 142.139C124.319 142.653 123.226 142.922 122.117 142.923ZM115.539 135.78L116.179 138.184C116.751 139.762 117.926 141.048 119.446 141.76C120.966 142.471 122.706 142.55 124.284 141.978C125.862 141.407 127.148 140.231 127.86 138.711C128.571 137.191 128.65 135.451 128.078 133.873L127.045 131.64C126.4 131.309 122.226 129.254 119.982 130.064C117.738 130.875 115.802 135.118 115.517 135.78H115.539Z" fill="#FFAB63"/>
<path d="M121.535 141.049C125.187 141.049 128.147 138.089 128.147 134.437C128.147 130.786 125.187 127.825 121.535 127.825C117.883 127.825 114.923 130.786 114.923 134.437C114.923 138.089 117.883 141.049 121.535 141.049Z" fill="#FFB9AA"/>
<path d="M121.546 141.336C120.511 141.339 119.489 141.109 118.555 140.663C117.621 140.217 116.799 139.567 116.15 138.76C115.502 137.953 115.043 137.011 114.808 136.003C114.574 134.995 114.569 133.947 114.794 132.937C115.019 131.926 115.469 130.98 116.11 130.167C116.751 129.354 117.567 128.696 118.496 128.242C119.426 127.787 120.446 127.547 121.481 127.541C122.516 127.534 123.54 127.76 124.475 128.203C125.296 128.587 126.033 129.129 126.642 129.8C127.252 130.47 127.723 131.255 128.027 132.108C128.402 133.149 128.521 134.264 128.374 135.36C128.227 136.456 127.818 137.5 127.183 138.405C126.547 139.31 125.703 140.048 124.722 140.559C123.741 141.069 122.652 141.335 121.546 141.336ZM121.546 128.106C120.531 128.106 119.53 128.351 118.629 128.82C117.728 129.288 116.953 129.966 116.369 130.797C115.785 131.628 115.41 132.587 115.274 133.593C115.139 134.599 115.247 135.624 115.591 136.579C115.864 137.372 116.291 138.102 116.849 138.728C117.406 139.354 118.082 139.863 118.838 140.225C119.594 140.587 120.414 140.796 121.251 140.839C122.088 140.881 122.926 140.757 123.714 140.473C124.503 140.19 125.227 139.752 125.846 139.186C126.464 138.62 126.963 137.937 127.315 137.176C127.667 136.415 127.864 135.592 127.895 134.755C127.926 133.917 127.79 133.082 127.496 132.297C127.217 131.513 126.785 130.792 126.226 130.177C125.666 129.561 124.989 129.063 124.236 128.711C123.394 128.315 122.476 128.108 121.546 128.106Z" fill="#FFAB63"/>
<path d="M120.57 129.75L120.895 130.652C120.895 130.714 120.941 130.726 121.004 130.714C121.477 130.638 121.963 130.683 122.414 130.846C122.898 131.01 123.305 131.348 123.556 131.794C123.625 131.914 123.676 132.039 123.744 132.171L122.345 132.673C122.264 132.465 122.118 132.289 121.929 132.171C121.766 132.097 121.601 132.033 121.432 131.976V132.005L122.06 133.752H122.226C122.63 133.688 123.04 133.673 123.448 133.706C123.752 133.728 124.046 133.83 124.298 134.002C124.55 134.175 124.751 134.412 124.881 134.689C125.127 135.148 125.205 135.68 125.101 136.191C124.997 136.702 124.717 137.16 124.31 137.486C124.081 137.669 123.836 137.823 123.585 138L123.83 138.68L122.54 139.142L122.288 138.446C122.003 138.446 121.717 138.503 121.466 138.509C120.943 138.526 120.429 138.37 120.004 138.063C119.651 137.786 119.386 137.411 119.245 136.984L120.621 136.487C120.713 136.725 120.883 136.925 121.102 137.056C121.322 137.186 121.578 137.239 121.832 137.207C121.609 136.579 121.381 135.956 121.158 135.334L120.296 135.391C119.95 135.417 119.603 135.359 119.285 135.22C118.963 135.071 118.697 134.823 118.526 134.512C118.298 134.143 118.177 133.718 118.177 133.284C118.179 132.971 118.249 132.661 118.383 132.378C118.517 132.095 118.712 131.845 118.954 131.645C119.157 131.491 119.369 131.348 119.588 131.217L119.668 131.171L119.262 130.229L120.57 129.75ZM123.088 136.738C123.291 136.635 123.461 136.477 123.579 136.282C123.671 136.111 123.698 135.913 123.655 135.724C123.612 135.535 123.502 135.368 123.345 135.254C123.083 135.14 122.795 135.098 122.511 135.134L123.088 136.738ZM120.05 132.348C119.904 132.482 119.769 132.627 119.645 132.781C119.584 132.869 119.544 132.968 119.526 133.073C119.508 133.178 119.514 133.285 119.542 133.388C119.57 133.49 119.621 133.585 119.69 133.666C119.759 133.747 119.845 133.811 119.942 133.855C120.158 133.92 120.386 133.938 120.61 133.906L120.05 132.348Z" fill="white"/>
<path d="M131.749 143.363C130.339 145.709 131.921 150.917 131.921 150.917L134.01 152.436C134.755 152.883 135.58 153.18 136.439 153.309C137.297 153.438 138.173 153.396 139.016 153.186C139.859 152.977 140.652 152.603 141.35 152.087C142.049 151.57 142.639 150.922 143.086 150.177C143.534 149.433 143.831 148.608 143.959 147.749C144.088 146.89 144.047 146.015 143.837 145.172C143.627 144.329 143.254 143.536 142.737 142.837C142.221 142.139 141.572 141.549 140.828 141.101L138.504 139.959C138.504 139.959 133.16 141.033 131.749 143.363Z" fill="#FFB9AA"/>
<path d="M137.408 153.686C136.158 153.686 134.932 153.345 133.862 152.698L131.749 151.162C131.699 151.128 131.663 151.078 131.647 151.02C131.578 150.797 130.048 145.658 131.504 143.231C132.966 140.805 138.224 139.748 138.447 139.703C138.506 139.682 138.571 139.682 138.63 139.703L140.948 140.844C142.122 141.544 143.062 142.576 143.649 143.81C144.235 145.045 144.442 146.425 144.242 147.777C144.043 149.129 143.446 150.391 142.528 151.404C141.611 152.416 140.413 153.133 139.087 153.463C138.538 153.605 137.974 153.68 137.408 153.686ZM132.166 150.785L134.176 152.247C135.612 153.058 137.309 153.276 138.903 152.855C140.498 152.433 141.865 151.406 142.713 149.991C143.561 148.576 143.823 146.886 143.443 145.281C143.063 143.676 142.072 142.283 140.68 141.398L138.464 140.313C137.756 140.468 133.228 141.513 131.995 143.557C130.762 145.572 131.966 150.066 132.166 150.785Z" fill="#FFAB63"/>
<path d="M135.98 152.533C139.632 152.533 142.592 149.572 142.592 145.921C142.592 142.269 139.632 139.309 135.98 139.309C132.329 139.309 129.368 142.269 129.368 145.921C129.368 149.572 132.329 152.533 135.98 152.533Z" fill="#FFB9AA"/>
<path d="M135.969 152.818C134.907 152.816 133.86 152.568 132.909 152.094C131.958 151.621 131.13 150.934 130.488 150.087C129.846 149.241 129.409 148.258 129.209 147.215C129.01 146.171 129.055 145.096 129.339 144.073C129.624 143.049 130.141 142.105 130.85 141.315C131.559 140.524 132.442 139.908 133.428 139.514C134.415 139.121 135.479 138.96 136.537 139.045C137.596 139.13 138.621 139.459 139.532 140.005C140.827 140.782 141.831 141.962 142.391 143.364C142.951 144.766 143.035 146.314 142.63 147.768C142.226 149.223 141.355 150.505 140.152 151.417C138.948 152.329 137.479 152.822 135.969 152.818ZM135.969 139.594C134.441 139.595 132.966 140.149 131.815 141.154C130.664 142.159 129.917 143.547 129.71 145.06C129.504 146.574 129.852 148.111 130.692 149.388C131.531 150.664 132.804 151.593 134.276 152.004C135.747 152.414 137.318 152.277 138.696 151.619C140.075 150.961 141.169 149.826 141.775 148.423C142.381 147.021 142.459 145.447 141.994 143.992C141.529 142.536 140.553 141.299 139.246 140.508C138.263 139.912 137.136 139.596 135.986 139.594H135.969Z" fill="#FFAB63"/>
<path d="M132.269 142.894C132.543 143.06 132.84 143.22 133.097 143.391C133.104 143.4 133.114 143.406 133.124 143.411C133.134 143.416 133.145 143.418 133.157 143.418C133.168 143.418 133.179 143.416 133.19 143.411C133.2 143.406 133.209 143.4 133.217 143.391C133.539 143.035 133.942 142.763 134.393 142.597C134.87 142.428 135.392 142.441 135.86 142.632L136.243 142.803L135.478 144.076C135.283 143.965 135.056 143.92 134.833 143.951C134.662 143.995 134.494 144.05 134.33 144.116V144.145L135.918 145.104L136.032 144.984C136.307 144.679 136.618 144.406 136.957 144.173C137.205 144.002 137.494 143.899 137.795 143.875C138.096 143.85 138.397 143.906 138.67 144.036C139.198 144.25 139.623 144.659 139.857 145.178C140.042 145.608 140.088 146.086 139.989 146.543C139.926 146.829 139.835 147.114 139.755 147.4L140.371 147.776L139.663 148.947L139.029 148.564C138.824 148.764 138.636 148.958 138.458 149.135C138.066 149.482 137.566 149.684 137.042 149.706C136.594 149.72 136.153 149.599 135.775 149.358L136.529 148.102C136.751 148.228 137.009 148.275 137.262 148.237C137.514 148.198 137.747 148.077 137.922 147.891L136.209 146.869L135.575 147.44C135.323 147.677 135.017 147.852 134.684 147.948C134.341 148.032 133.98 148.008 133.651 147.879C133.24 147.734 132.877 147.479 132.6 147.143C132.405 146.899 132.265 146.615 132.191 146.311C132.117 146.007 132.11 145.691 132.172 145.384C132.229 145.136 132.302 144.892 132.389 144.653C132.387 144.623 132.387 144.592 132.389 144.562L131.532 144.048L132.269 142.894ZM138.641 146.72C138.734 146.51 138.763 146.278 138.727 146.052C138.691 145.862 138.587 145.692 138.435 145.573C138.282 145.454 138.092 145.395 137.899 145.407C137.624 145.484 137.376 145.634 137.179 145.841L138.641 146.72ZM133.502 145.241C133.476 145.43 133.463 145.621 133.462 145.812C133.471 145.918 133.504 146.021 133.557 146.114C133.609 146.207 133.682 146.287 133.769 146.349C133.856 146.411 133.955 146.453 134.06 146.473C134.165 146.492 134.272 146.489 134.376 146.463C134.591 146.377 134.786 146.247 134.947 146.081L133.502 145.241Z" fill="white"/>
<path d="M135.769 177.496C135.079 175.584 133.839 172.889 132.109 171.969C129.329 170.479 123.425 172.603 123.425 172.603L121.803 175.098C121.401 175.846 121.13 176.657 121.004 177.496H135.769Z" fill="#FFB9AA"/>
<path d="M135.769 177.782H121.003C120.962 177.78 120.922 177.771 120.885 177.753C120.848 177.735 120.815 177.71 120.788 177.679C120.761 177.648 120.741 177.611 120.729 177.572C120.717 177.533 120.713 177.491 120.718 177.451C120.857 176.581 121.136 175.74 121.546 174.961L123.19 172.443C123.223 172.391 123.274 172.352 123.333 172.335C123.579 172.243 129.386 170.188 132.246 171.718C134.022 172.666 135.29 175.332 136.038 177.428C136.054 177.47 136.059 177.516 136.053 177.561C136.047 177.605 136.03 177.648 136.003 177.685C135.975 177.718 135.939 177.744 135.898 177.761C135.857 177.778 135.813 177.785 135.769 177.782ZM121.346 177.211H135.358C134.376 174.624 133.183 172.86 131.978 172.22C129.517 170.907 124.355 172.586 123.613 172.837L122.037 175.252C121.713 175.868 121.48 176.528 121.346 177.211Z" fill="#FFAB63"/>
<path d="M137.031 177.496C137.107 176.452 136.967 175.404 136.619 174.416C136.272 173.429 135.725 172.524 135.012 171.757C134.299 170.991 133.436 170.379 132.476 169.961C131.516 169.543 130.481 169.328 129.434 169.328C128.387 169.328 127.352 169.543 126.392 169.961C125.433 170.379 124.569 170.991 123.857 171.757C123.144 172.524 122.596 173.429 122.249 174.416C121.902 175.404 121.761 176.452 121.837 177.496H137.031Z" fill="#FFB9AA"/>
<path d="M137.031 177.781H121.837C121.765 177.78 121.695 177.752 121.642 177.702C121.59 177.653 121.557 177.585 121.552 177.513C121.474 176.431 121.621 175.344 121.982 174.321C122.343 173.298 122.912 172.36 123.651 171.566C124.391 170.772 125.286 170.138 126.281 169.705C127.276 169.272 128.349 169.049 129.434 169.049C130.519 169.049 131.593 169.272 132.588 169.705C133.583 170.138 134.478 170.772 135.217 171.566C135.957 172.36 136.525 173.298 136.886 174.321C137.247 175.344 137.394 176.431 137.317 177.513C137.311 177.585 137.279 177.653 137.226 177.702C137.173 177.752 137.104 177.78 137.031 177.781ZM122.111 177.21H136.757C136.8 175.844 136.46 174.493 135.776 173.31C135.092 172.126 134.091 171.158 132.886 170.513C131.753 169.904 130.479 169.606 129.194 169.647C127.908 169.688 126.656 170.067 125.564 170.746C124.472 171.426 123.578 172.381 122.973 173.516C122.368 174.651 122.072 175.925 122.117 177.21H122.111Z" fill="#FFAB63"/>
<path d="M127.644 176.606L128.358 177.302L128.255 177.496H131.081C130.91 177.319 130.727 177.154 130.539 176.994L130.396 176.868C130.739 176.234 131.07 175.606 131.401 174.984H131.441C131.525 175.17 131.598 175.36 131.658 175.555C131.707 175.807 131.668 176.069 131.55 176.297L133.063 177.108C133.12 176.954 133.183 176.805 133.234 176.657C133.431 176.1 133.415 175.49 133.188 174.944C132.973 174.434 132.636 173.985 132.206 173.636C132.149 173.591 132.143 173.562 132.206 173.499L132.732 172.517L131.338 171.775L130.796 172.791H130.693C130.412 172.704 130.126 172.634 129.837 172.58C129.482 172.522 129.119 172.544 128.774 172.642C128.428 172.741 128.109 172.915 127.838 173.151C127.469 173.488 127.196 173.918 127.05 174.396C126.924 174.786 126.924 175.205 127.05 175.595C127.163 175.975 127.366 176.322 127.644 176.606ZM129.397 174.087C129.621 174.071 129.846 174.071 130.071 174.087L129.174 175.772C128.976 175.603 128.814 175.395 128.7 175.161C128.666 175.044 128.658 174.922 128.676 174.802C128.693 174.681 128.737 174.567 128.803 174.465C128.869 174.363 128.956 174.276 129.059 174.211C129.161 174.146 129.277 174.104 129.397 174.087Z" fill="white"/>
<path d="M141.759 177.782H116.921C116.845 177.782 116.773 177.752 116.719 177.698C116.666 177.645 116.635 177.572 116.635 177.496C116.635 177.421 116.666 177.348 116.719 177.295C116.773 177.241 116.845 177.211 116.921 177.211H141.759C141.835 177.211 141.908 177.241 141.961 177.295C142.015 177.348 142.045 177.421 142.045 177.496C142.043 177.572 142.013 177.643 141.959 177.697C141.906 177.75 141.834 177.78 141.759 177.782Z" fill="#FFAB63"/>
<g clip-path="url(#clip0_3_3176)">
<path fill-rule="evenodd" clip-rule="evenodd" d="M206.846 55.6106C206.697 55.2841 206.563 54.9577 206.444 54.6271C206.266 54.1313 206.155 53.6133 206.004 53.1102C205.94 52.8968 205.764 52.3428 205.753 52.2594C205.659 51.5311 206.197 51.2715 206.358 51.2078C206.435 51.1747 207.235 50.8617 207.658 51.7284C208.176 52.7879 208.547 53.8948 208.766 55.0181C209.197 55.9072 209.755 56.7582 210.388 57.4944C212.908 60.4222 216.081 59.9222 219.415 58.9959C219.927 58.8504 220.462 59.1394 220.626 59.6432C220.79 60.1508 220.527 60.699 220.028 60.8822C218.208 61.5634 215.295 63.9499 214.567 65.8168C214.414 66.2076 214.486 67.0326 214.508 67.8542C214.538 68.995 214.516 70.1374 214.292 70.675C214.26 70.758 213.823 71.6326 213.664 71.7863C213.281 72.1525 212.884 72.1065 212.645 72.0306C212.406 71.9546 212.106 71.7591 211.9 71.3573C211.684 70.9375 211.52 70.0013 211.453 69.8094C211.208 69.1133 210.692 67.7568 210.081 66.6358C209.751 66.0323 209.425 65.4815 209.07 65.2596C207.755 64.4383 206.166 65.0371 204.839 65.5861C204.687 65.6476 204.535 65.713 204.382 65.7744C203.867 66.0896 203.306 66.3718 202.697 66.6131C201.778 66.9787 201.389 66.1484 201.365 66.093C201.313 65.971 201.072 65.3355 201.717 64.8826C201.788 64.8348 202.33 64.5538 202.538 64.4445C202.828 64.2926 203.126 64.1551 203.426 64.0212C206.395 62.1469 207.396 58.848 206.846 55.6106ZM208.893 58.8051C210.793 61.0055 212.976 61.7301 215.323 61.694L215.323 61.6942C214.142 62.7805 213.134 64.0142 212.714 65.0944C212.554 65.5036 212.508 66.2531 212.507 67.081C212.202 66.3927 211.845 65.6689 211.469 65.0696C211.041 64.3856 210.567 63.8495 210.125 63.5728C209.272 63.0397 208.333 62.8669 207.386 62.9108C208.203 61.6748 208.698 60.2739 208.893 58.8051Z" fill="#FFB9AA"/>
</g>
<g clip-path="url(#clip1_3_3176)">
<path fill-rule="evenodd" clip-rule="evenodd" d="M182.779 9.9757C182.705 9.8136 182.639 9.65154 182.58 9.48741C182.491 9.24125 182.436 8.98406 182.361 8.73426C182.329 8.62831 182.242 8.35325 182.236 8.31181C182.19 7.95022 182.457 7.82131 182.537 7.78969C182.575 7.77329 182.972 7.61785 183.182 8.04816C183.439 8.57421 183.624 9.12379 183.732 9.68152C183.946 10.123 184.224 10.5455 184.538 10.911C185.789 12.3647 187.364 12.1164 189.02 11.6565C189.274 11.5843 189.539 11.7278 189.621 11.9779C189.703 12.2299 189.572 12.5021 189.324 12.5931C188.42 12.9313 186.974 14.1162 186.612 15.0431C186.537 15.2371 186.572 15.6467 186.584 16.0546C186.598 16.6211 186.587 17.1883 186.476 17.4552C186.46 17.4964 186.243 17.9306 186.164 18.007C185.974 18.1887 185.777 18.1659 185.658 18.1282C185.54 18.0905 185.391 17.9934 185.288 17.794C185.181 17.5855 185.1 17.1207 185.066 17.0254C184.945 16.6798 184.689 16.0063 184.385 15.4497C184.222 15.1501 184.06 14.8766 183.883 14.7664C183.231 14.3586 182.442 14.656 181.783 14.9285C181.707 14.9591 181.632 14.9915 181.556 15.022C181.3 15.1785 181.021 15.3186 180.719 15.4384C180.263 15.62 180.07 15.2077 180.058 15.1802C180.032 15.1196 179.913 14.8041 180.233 14.5793C180.268 14.5555 180.537 14.416 180.64 14.3617C180.784 14.2863 180.932 14.2181 181.081 14.1516C182.555 13.221 183.052 11.5831 182.779 9.9757ZM183.796 11.5618C184.739 12.6543 185.823 13.014 186.988 12.9961L186.988 12.9962C186.402 13.5355 185.901 14.1481 185.693 14.6844C185.613 14.8876 185.59 15.2597 185.59 15.6707C185.438 15.329 185.261 14.9697 185.075 14.6721C184.862 14.3325 184.627 14.0663 184.407 13.9289C183.983 13.6642 183.518 13.5785 183.047 13.6002C183.453 12.9866 183.699 12.291 183.796 11.5618Z" fill="#AB92F0"/>
</g>
<g clip-path="url(#clip2_3_3176)">
<path fill-rule="evenodd" clip-rule="evenodd" d="M68.1748 68.3374C68.1102 68.1962 68.0523 68.0551 68.001 67.9122C67.924 67.6979 67.8761 67.474 67.8109 67.2565C67.7832 67.1643 67.7071 66.9248 67.7022 66.8887C67.6615 66.5739 67.8943 66.4617 67.9638 66.4342C67.9972 66.4199 68.3429 66.2845 68.5257 66.6592C68.7495 67.1172 68.9101 67.5957 69.0045 68.0812C69.1909 68.4656 69.4322 68.8334 69.706 69.1516C70.7952 70.4172 72.1666 70.2011 73.6078 69.8007C73.8291 69.7378 74.0603 69.8627 74.1312 70.0805C74.2024 70.2999 74.0886 70.5369 73.8728 70.6161C73.0861 70.9105 71.8268 71.9421 71.512 72.7491C71.4462 72.9181 71.4772 73.2747 71.4869 73.6298C71.4998 74.123 71.4902 74.6168 71.3936 74.8492C71.3793 74.885 71.1907 75.2631 71.122 75.3295C70.9565 75.4878 70.7847 75.4679 70.6814 75.4351C70.5781 75.4023 70.4485 75.3178 70.3592 75.1441C70.2659 74.9626 70.1952 74.5579 70.1661 74.475C70.0602 74.1741 69.8372 73.5877 69.573 73.1032C69.4306 72.8423 69.2896 72.6042 69.1361 72.5082C68.5678 72.1532 67.8807 72.4121 67.3073 72.6494C67.2412 72.676 67.1757 72.7043 67.1098 72.7308C66.887 72.8671 66.6443 72.989 66.3812 73.0933C65.9841 73.2514 65.8157 72.8924 65.8053 72.8685C65.783 72.8158 65.679 72.5411 65.9578 72.3453C65.9884 72.3247 66.2225 72.2032 66.3125 72.1559C66.438 72.0903 66.5668 72.0308 66.6965 71.9729C67.9797 71.1628 68.4125 69.7368 68.1748 68.3374ZM69.0597 69.7182C69.8809 70.6694 70.8244 70.9826 71.839 70.967L71.8389 70.967C71.3286 71.4366 70.8928 71.9699 70.7112 72.4368C70.6422 72.6138 70.6222 72.9377 70.6218 73.2956C70.49 72.9981 70.3356 72.6852 70.1731 72.4262C69.988 72.1305 69.7833 71.8987 69.5921 71.7791C69.2232 71.5487 68.8176 71.474 68.4082 71.4929C68.7613 70.9587 68.9753 70.3531 69.0597 69.7182Z" fill="#FFCEC4"/>
</g>
<g clip-path="url(#clip3_3_3176)">
<path fill-rule="evenodd" clip-rule="evenodd" d="M43.1748 34.3373C43.1102 34.1962 43.0523 34.0551 43.001 33.9122C42.924 33.6979 42.8761 33.474 42.8109 33.2565C42.7832 33.1643 42.7071 32.9248 42.7022 32.8887C42.6615 32.5739 42.8943 32.4617 42.9638 32.4341C42.9972 32.4199 43.3429 32.2845 43.5257 32.6592C43.7495 33.1172 43.9101 33.5956 44.0045 34.0812C44.1909 34.4655 44.4322 34.8334 44.706 35.1516C45.7952 36.4172 47.1666 36.2011 48.6078 35.8007C48.8291 35.7378 49.0603 35.8627 49.1312 36.0805C49.2024 36.2999 49.0886 36.5369 48.8728 36.6161C48.0861 36.9105 46.8268 37.9421 46.512 38.7491C46.4462 38.918 46.4772 39.2746 46.4869 39.6298C46.4998 40.1229 46.4902 40.6168 46.3936 40.8491C46.3793 40.885 46.1907 41.2631 46.122 41.3295C45.9565 41.4878 45.7847 41.4679 45.6814 41.4351C45.5781 41.4023 45.4485 41.3177 45.3592 41.1441C45.2659 40.9626 45.1952 40.5579 45.1661 40.475C45.0602 40.174 44.8372 39.5877 44.573 39.1031C44.4306 38.8422 44.2896 38.6042 44.1361 38.5082C43.5678 38.1532 42.8807 38.4121 42.3073 38.6494C42.2412 38.676 42.1757 38.7042 42.1098 38.7308C41.887 38.867 41.6443 38.989 41.3812 39.0933C40.9841 39.2513 40.8157 38.8924 40.8053 38.8685C40.783 38.8157 40.679 38.541 40.9578 38.3453C40.9884 38.3246 41.2225 38.2032 41.3125 38.1559C41.438 38.0902 41.5668 38.0308 41.6965 37.9729C42.9797 37.1627 43.4125 35.7367 43.1748 34.3373ZM44.0597 35.7182C44.8809 36.6693 45.8244 36.9826 46.839 36.967L46.8389 36.967C46.3286 37.4366 45.8928 37.9699 45.7112 38.4368C45.6422 38.6137 45.6222 38.9377 45.6218 39.2956C45.49 38.9981 45.3356 38.6852 45.1731 38.4261C44.988 38.1304 44.7833 37.8987 44.5921 37.7791C44.2232 37.5487 43.8176 37.474 43.4082 37.4929C43.7613 36.9587 43.9753 36.3531 44.0597 35.7182Z" fill="#4ADE80"/>
</g>
<g clip-path="url(#clip4_3_3176)">
<path fill-rule="evenodd" clip-rule="evenodd" d="M4.17476 83.3374C4.11024 83.1962 4.05232 83.0551 4.00104 82.9122C3.92404 82.6979 3.87614 82.474 3.81093 82.2565C3.78319 82.1643 3.70709 81.9248 3.70223 81.8887C3.66149 81.5739 3.89431 81.4617 3.96383 81.4342C3.9972 81.4199 4.34291 81.2845 4.52571 81.6592C4.74953 82.1172 4.91013 82.5957 5.00446 83.0812C5.19092 83.4656 5.43224 83.8334 5.70601 84.1516C6.79519 85.4172 8.16655 85.2011 9.6078 84.8007C9.82911 84.7378 10.0603 84.8627 10.1312 85.0805C10.2024 85.2999 10.0886 85.5369 9.87275 85.6161C9.08607 85.9105 7.82675 86.9421 7.51203 87.7491C7.44622 87.9181 7.47717 88.2747 7.4869 88.6298C7.49978 89.123 7.49024 89.6168 7.39355 89.8492C7.37931 89.885 7.19066 90.2631 7.12196 90.3295C6.95647 90.4878 6.78473 90.4679 6.68142 90.4351C6.57811 90.4023 6.44848 90.3178 6.35923 90.1441C6.26593 89.9626 6.19523 89.5579 6.16606 89.475C6.06016 89.1741 5.83719 88.5877 5.57297 88.1032C5.43062 87.8423 5.28957 87.6042 5.13607 87.5082C4.56783 87.1532 3.88073 87.4121 3.30728 87.6494C3.24125 87.676 3.17566 87.7043 3.1098 87.7308C2.88697 87.8671 2.64429 87.989 2.38122 88.0933C1.9841 88.2514 1.81567 87.8924 1.80534 87.8685C1.78302 87.8158 1.67897 87.5411 1.95777 87.3453C1.98836 87.3247 2.22245 87.2032 2.31249 87.1559C2.438 87.0903 2.56679 87.0308 2.69652 86.9729C3.97973 86.1628 4.41249 84.7368 4.17476 83.3374ZM5.05969 84.7182C5.88093 85.6694 6.82438 85.9826 7.83904 85.967L7.83888 85.967C7.32856 86.4366 6.89279 86.9699 6.71122 87.4368C6.64221 87.6138 6.62222 87.9377 6.62182 88.2956C6.48995 87.9981 6.33564 87.6852 6.17314 87.4262C5.988 87.1305 5.78333 86.8987 5.59215 86.7791C5.22319 86.5487 4.81764 86.474 4.40817 86.4929C4.76126 85.9587 4.97529 85.3531 5.05969 84.7182Z" fill="#E5E7EB"/>
</g>
<g clip-path="url(#clip5_3_3176)">
<path fill-rule="evenodd" clip-rule="evenodd" d="M251.674 76.937C251.617 76.8128 251.566 76.6887 251.521 76.5629C251.453 76.3743 251.411 76.1773 251.354 75.9859C251.329 75.9047 251.262 75.694 251.258 75.6622C251.222 75.3852 251.427 75.2864 251.488 75.2622C251.518 75.2497 251.822 75.1306 251.983 75.4602C252.18 75.8633 252.321 76.2843 252.404 76.7116C252.568 77.0498 252.78 77.3736 253.021 77.6536C253.98 78.7673 255.187 78.5771 256.455 78.2247C256.65 78.1694 256.853 78.2793 256.915 78.471C256.978 78.6641 256.878 78.8726 256.688 78.9423C255.996 79.2014 254.888 80.1092 254.611 80.8193C254.553 80.968 254.58 81.2818 254.588 81.5943C254.6 82.0283 254.591 82.4629 254.506 82.6674C254.494 82.6989 254.328 83.0316 254.267 83.0901C254.122 83.2294 253.971 83.2119 253.88 83.183C253.789 83.1541 253.675 83.0797 253.596 82.9269C253.514 82.7672 253.452 82.4111 253.426 82.3381C253.333 82.0733 253.137 81.5573 252.904 81.1309C252.779 80.9013 252.655 80.6918 252.52 80.6074C252.02 80.295 251.415 80.5228 250.91 80.7316C250.852 80.755 250.795 80.7799 250.737 80.8032C250.541 80.9231 250.327 81.0305 250.096 81.1222C249.746 81.2613 249.598 80.9455 249.589 80.9244C249.569 80.878 249.478 80.6362 249.723 80.464C249.75 80.4458 249.956 80.3389 250.035 80.2973C250.145 80.2395 250.259 80.1873 250.373 80.1363C251.502 79.4234 251.883 78.1685 251.674 76.937ZM252.453 78.1522C253.175 78.9892 254.005 79.2648 254.898 79.2511L254.898 79.2511C254.449 79.6644 254.066 80.1336 253.906 80.5445C253.845 80.7002 253.828 80.9853 253.827 81.3002C253.711 81.0384 253.575 80.7631 253.432 80.5351C253.269 80.2749 253.089 80.071 252.921 79.9657C252.596 79.763 252.24 79.6972 251.879 79.7139C252.19 79.2438 252.378 78.7109 252.453 78.1522Z" fill="#E5E7EB"/>
</g>
<circle cx="100" cy="36" r="2.5" stroke="#E5E7EB"/>
<circle opacity="0.5" cx="119" cy="2" r="1.5" stroke="#E5E7EB"/>
<defs>
<clipPath id="clip0_3_3176">
<rect width="22.2734" height="22.2734" fill="white" transform="translate(197.188 53.6543) rotate(-15)"/>
</clipPath>
<clipPath id="clip1_3_3176">
<rect width="11.0587" height="11.0587" fill="white" transform="translate(177.984 9.00439) rotate(-15)"/>
</clipPath>
<clipPath id="clip2_3_3176">
<rect width="9.62799" height="9.62799" fill="white" transform="translate(64 67.4917) rotate(-15)"/>
</clipPath>
<clipPath id="clip3_3_3176">
<rect width="9.62799" height="9.62799" fill="white" transform="translate(39 33.4917) rotate(-15)"/>
</clipPath>
<clipPath id="clip4_3_3176">
<rect width="9.62799" height="9.62799" fill="white" transform="translate(0 82.4917) rotate(-15)"/>
</clipPath>
<clipPath id="clip5_3_3176">
<rect width="8.47256" height="8.47256" fill="white" transform="translate(248 76.1929) rotate(-15)"/>
</clipPath>
</defs>
</svg>
